<?xml version="1.0" encoding="UTF-8" standalone="no"?>
<!-- Created with Inkscape (http://www.inkscape.org/) -->

<svg
   xmlns:dc="http://purl.org/dc/elements/1.1/"
   xmlns:cc="http://creativecommons.org/ns#"
   xmlns:rdf="http://www.w3.org/1999/02/22-rdf-syntax-ns#"
   xmlns:svg="http://www.w3.org/2000/svg"
   xmlns="http://www.w3.org/2000/svg"
   xmlns:sodipodi="http://sodipodi.sourceforge.net/DTD/sodipodi-0.dtd"
   xmlns:inkscape="http://www.inkscape.org/namespaces/inkscape"
   width="91.848129mm"
   height="28.138124mm"
   viewBox="0 0 91.848129 28.138124"
   version="1.1"
   id="svg8"
   inkscape:version="0.92.2pre0 (973e216, 2017-07-25)"
   sodipodi:docname="BPanL_final.svg">
  <defs
     id="defs2" />
  <sodipodi:namedview
     id="base"
     pagecolor="#ffffff"
     bordercolor="#666666"
     borderopacity="1.0"
     inkscape:pageopacity="0.0"
     inkscape:pageshadow="2"
     inkscape:zoom="2.8284271"
     inkscape:cx="145.5537"
     inkscape:cy="12.553498"
     inkscape:document-units="mm"
     inkscape:current-layer="layer1"
     showgrid="true"
     fit-margin-top="1"
     fit-margin-left="1"
     fit-margin-right="1"
     fit-margin-bottom="1"
     inkscape:window-width="1920"
     inkscape:window-height="1016"
     inkscape:window-x="0"
     inkscape:window-y="27"
     inkscape:window-maximized="1"
     showguides="false">
    <inkscape:grid
       type="xygrid"
       id="grid6112"
       units="mm"
       spacingx="0.0099999999"
       spacingy="0.0099999999"
       dotted="false"
       originx="1.1190625"
       originy="1.1190994" />
  </sodipodi:namedview>
  <metadata
     id="metadata5">
    <rdf:RDF>
      <cc:Work
         rdf:about="">
        <dc:format>image/svg+xml</dc:format>
        <dc:type
           rdf:resource="http://purl.org/dc/dcmitype/StillImage" />
        <dc:title></dc:title>
      </cc:Work>
    </rdf:RDF>
  </metadata>
  <g
     inkscape:label="Layer 1"
     inkscape:groupmode="layer"
     id="layer1"
     transform="translate(1.3836453,-274.22295)">
    <rect
       id="rect10"
       width="89.610001"
       height="25.9"
       x="-0.26458281"
       y="275.34201"
       style="fill:none;stroke:#000000;stroke-width:0.238125;stroke-miterlimit:4;stroke-dasharray:none"
       ry="2.0999999"
       rx="2.0999999" />
    <g
       aria-label="P"
       transform="scale(0.9999185,1.0000815)"
       style="font-style:normal;font-variant:normal;font-weight:normal;font-stretch:normal;font-size:4.23298788px;line-height:1.25;font-family:'Arial Black';-inkscape-font-specification:'Arial Black, ';text-align:center;letter-spacing:0px;word-spacing:0px;text-anchor:middle;fill:#000000;fill-opacity:1;stroke:none;stroke-width:0.26458332"
       id="text875" />
    <g
       aria-label="T"
       style="font-style:normal;font-variant:normal;font-weight:normal;font-stretch:normal;font-size:4.23333311px;line-height:1.25;font-family:'Arial Black';-inkscape-font-specification:'Arial Black, ';text-align:center;letter-spacing:0px;word-spacing:0px;text-anchor:middle;fill:#000000;fill-opacity:1;stroke:none;stroke-width:0.26458332"
       id="text879" />
    <g
       aria-label="L"
       style="font-style:normal;font-variant:normal;font-weight:normal;font-stretch:normal;font-size:4.23333311px;line-height:1.25;font-family:'Arial Black';-inkscape-font-specification:'Arial Black, ';text-align:center;letter-spacing:0px;word-spacing:0px;text-anchor:middle;fill:#000000;fill-opacity:1;stroke:none;stroke-width:0.26458332"
       id="text883" />
    <g
       aria-label="1"
       style="font-style:normal;font-variant:normal;font-weight:normal;font-stretch:normal;font-size:4.23253345px;line-height:1.25;font-family:'Arial Black';-inkscape-font-specification:'Arial Black, ';text-align:center;letter-spacing:0px;word-spacing:0px;text-anchor:middle;fill:#000000;fill-opacity:1;stroke:none;stroke-width:0.26458332"
       id="text887" />
    <g
       aria-label="2"
       style="font-style:normal;font-variant:normal;font-weight:normal;font-stretch:normal;font-size:4.23333311px;line-height:1.25;font-family:'Arial Black';-inkscape-font-specification:'Arial Black, ';text-align:center;letter-spacing:0px;word-spacing:0px;text-anchor:middle;fill:#000000;fill-opacity:1;stroke:none;stroke-width:0.26458332"
       id="text891" />
    <g
       aria-label="B"
       style="font-style:normal;font-variant:normal;font-weight:normal;font-stretch:normal;font-size:4.23333311px;line-height:1.25;font-family:'Arial Black';-inkscape-font-specification:'Arial Black, ';text-align:center;letter-spacing:0px;word-spacing:0px;text-anchor:middle;fill:#000000;fill-opacity:1;stroke:none;stroke-width:0.26458332"
       id="text895" />
    <g
       aria-label="B1"
       style="font-style:normal;font-variant:normal;font-weight:normal;font-stretch:normal;font-size:4.23333311px;line-height:1.25;font-family:'Arial Black';-inkscape-font-specification:'Arial Black, ';text-align:center;letter-spacing:0px;word-spacing:0px;text-anchor:middle;fill:#000000;fill-opacity:1;stroke:none;stroke-width:0.26458332"
       id="text899" />
    <g
       aria-label="RST"
       style="font-style:normal;font-variant:normal;font-weight:normal;font-stretch:normal;font-size:4.23333311px;line-height:1.25;font-family:'Arial Black';-inkscape-font-specification:'Arial Black, ';text-align:center;letter-spacing:0px;word-spacing:0px;text-anchor:middle;fill:#000000;fill-opacity:1;stroke:none;stroke-width:0.26458332"
       id="text903" />
    <g
       aria-label="Mic"
       style="font-style:normal;font-variant:normal;font-weight:normal;font-stretch:normal;font-size:4.23333311px;line-height:1.25;font-family:'Arial Black';-inkscape-font-specification:'Arial Black, ';text-align:center;letter-spacing:0px;word-spacing:0px;text-anchor:middle;fill:#000000;fill-opacity:1;stroke:none;stroke-width:0.26458332"
       id="text907" />
    <flowRoot
       xml:space="preserve"
       id="flowRoot913"
       style="font-style:normal;font-variant:normal;font-weight:normal;font-stretch:normal;font-size:16px;line-height:1.25;font-family:'Arial Black';-inkscape-font-specification:'Arial Black, ';text-align:center;letter-spacing:0px;word-spacing:0px;text-anchor:middle;fill:#000000;fill-opacity:1;stroke:none"
       transform="matrix(0.26458333,0,0,0.26458333,-0.13229166,274.9451)"><flowRegion
         id="flowRegion915"><rect
           id="rect917"
           width="263.17844"
           height="26.601942"
           x="42.356491"
           y="67.638939" /></flowRegion><flowPara
         id="flowPara919" /></flowRoot>    <rect
       style="fill:none;stroke:#000000;stroke-width:0.26458332;stroke-miterlimit:4;stroke-dasharray:none"
       id="rect6208"
       width="39"
       height="12.35"
       x="4.8904176"
       y="282.34198"
       rx="0.89999998"
       ry="0.89999998" />
    <rect
       style="fill:none;stroke:#000000;stroke-width:0.26458332;stroke-miterlimit:4;stroke-dasharray:none"
       id="rect6210"
       width="39"
       height="12.35"
       x="45.190418"
       y="282.34198"
       rx="0.89999998"
       ry="0.89999998" />
    <g
       aria-label="Stereo"
       style="font-style:normal;font-variant:normal;font-weight:normal;font-stretch:normal;font-size:3.88055563px;line-height:1.25;font-family:'Arial Black';-inkscape-font-specification:'Arial Black, Normal';font-variant-ligatures:normal;font-variant-caps:normal;font-variant-numeric:normal;text-align:center;letter-spacing:0px;word-spacing:0px;writing-mode:lr-tb;text-anchor:middle;fill:#000000;fill-opacity:1;stroke:none;stroke-width:0.26458332"
       id="text1811">
      <path
         d="m 17.478861,280.52301 0.81666,-0.0512 q 0.02653,0.19895 0.108003,0.30317 0.132637,0.16863 0.378961,0.16863 0.183796,0 0.282325,-0.0853 0.100425,-0.0872 0.100425,-0.20085 0,-0.10801 -0.09474,-0.19327 -0.09474,-0.0853 -0.439594,-0.16106 -0.564651,-0.12695 -0.805291,-0.33728 -0.242535,-0.21032 -0.242535,-0.53622 0,-0.21412 0.123162,-0.4036 0.125057,-0.19137 0.373276,-0.29938 0.250114,-0.10989 0.684024,-0.10989 0.532439,0 0.810975,0.19895 0.280431,0.19706 0.333486,0.62907 l -0.809081,0.0474 q -0.03221,-0.18758 -0.136426,-0.27285 -0.102319,-0.0853 -0.28422,-0.0853 -0.14969,0 -0.225482,0.0644 -0.07579,0.0625 -0.07579,0.15348 0,0.0663 0.06253,0.11937 0.06063,0.055 0.28801,0.10232 0.562756,0.12127 0.805291,0.24633 0.244429,0.12316 0.354328,0.30695 0.111793,0.1838 0.111793,0.41118 0,0.26716 -0.147794,0.49264 -0.147795,0.22549 -0.413067,0.34296 -0.265273,0.11559 -0.668866,0.11559 -0.708656,0 -0.981507,-0.27286 -0.272852,-0.27285 -0.308853,-0.69349 z"
         style="stroke-width:0.26458332"
         id="path1817"
         inkscape:connector-curvature="0" />
      <path
         d="m 21.312046,278.66421 v 0.7655 h 0.424436 v 0.56275 h -0.424436 v 0.71434 q 0,0.12885 0.02463,0.17053 0.0379,0.0644 0.132636,0.0644 0.08527,0 0.238745,-0.0493 l 0.05684,0.53244 q -0.286115,0.0625 -0.534334,0.0625 -0.28801,0 -0.424436,-0.0739 -0.136426,-0.0739 -0.202744,-0.22358 -0.06442,-0.15159 -0.06442,-0.48886 v -0.70866 h -0.284221 v -0.56275 h 0.284221 v -0.36949 z"
         style="stroke-width:0.26458332"
         id="path1819"
         inkscape:connector-curvature="0" />
      <path
         d="m 24.336151,280.62722 h -1.546159 q 0.02084,0.18569 0.100425,0.27664 0.111793,0.13074 0.291799,0.13074 0.113688,0 0.216008,-0.0568 0.06253,-0.036 0.134531,-0.12695 l 0.759816,0.0701 q -0.174322,0.30316 -0.420647,0.4358 -0.246324,0.13074 -0.706761,0.13074 -0.399803,0 -0.629074,-0.11179 -0.229271,-0.11369 -0.380856,-0.35812 -0.149689,-0.24632 -0.149689,-0.57791 0,-0.47181 0.301274,-0.76361 0.303168,-0.2918 0.835607,-0.2918 0.432015,0 0.682129,0.13074 0.250114,0.13074 0.380856,0.37896 0.130741,0.24822 0.130741,0.64613 z m -0.784448,-0.36949 q -0.02274,-0.22358 -0.121268,-0.32022 -0.09663,-0.0966 -0.255798,-0.0966 -0.183796,0 -0.293694,0.1459 -0.07011,0.0909 -0.08906,0.27095 z"
         style="stroke-width:0.26458332"
         id="path1821"
         inkscape:connector-curvature="0" />
      <path
         d="m 24.701848,279.42971 h 0.72192 v 0.32969 q 0.104214,-0.21411 0.214113,-0.29369 0.111793,-0.0815 0.274746,-0.0815 0.170532,0 0.373276,0.10611 l -0.238745,0.54949 q -0.136426,-0.0568 -0.216008,-0.0568 -0.151584,0 -0.234955,0.12506 -0.119373,0.17621 -0.119373,0.65939 v 0.67455 h -0.774974 z"
         style="stroke-width:0.26458332"
         id="path1823"
         inkscape:connector-curvature="0" />
      <path
         d="m 28.709356,280.62722 h -1.546159 q 0.02084,0.18569 0.100424,0.27664 0.111794,0.13074 0.2918,0.13074 0.113688,0 0.216007,-0.0568 0.06253,-0.036 0.134531,-0.12695 l 0.759816,0.0701 q -0.174322,0.30316 -0.420646,0.4358 -0.246324,0.13074 -0.706761,0.13074 -0.399804,0 -0.629075,-0.11179 -0.229271,-0.11369 -0.380855,-0.35812 -0.149689,-0.24632 -0.149689,-0.57791 0,-0.47181 0.301273,-0.76361 0.303169,-0.2918 0.835608,-0.2918 0.432015,0 0.682129,0.13074 0.250114,0.13074 0.380855,0.37896 0.130742,0.24822 0.130742,0.64613 z m -0.784449,-0.36949 q -0.02274,-0.22358 -0.121267,-0.32022 -0.09664,-0.0966 -0.255798,-0.0966 -0.183796,0 -0.293695,0.1459 -0.07011,0.0909 -0.08905,0.27095 z"
         style="stroke-width:0.26458332"
         id="path1825"
         inkscape:connector-curvature="0" />
      <path
         d="m 28.972733,280.44153 q 0,-0.46044 0.310748,-0.75792 0.310747,-0.29938 0.839397,-0.29938 0.604442,0 0.913295,0.35054 0.248219,0.28232 0.248219,0.69539 0,0.46423 -0.308853,0.76171 -0.306958,0.29559 -0.850766,0.29559 -0.485069,0 -0.784448,-0.24632 -0.367592,-0.30507 -0.367592,-0.79961 z m 0.77308,-0.002 q 0,0.26906 0.108003,0.3979 0.109899,0.12885 0.274747,0.12885 0.166742,0 0.272851,-0.12695 0.108004,-0.12695 0.108004,-0.40738 0,-0.26149 -0.108004,-0.38844 -0.108004,-0.12884 -0.267167,-0.12884 -0.168637,0 -0.278536,0.13074 -0.109898,0.12884 -0.109898,0.39412 z"
         style="stroke-width:0.26458332"
         id="path1827"
         inkscape:connector-curvature="0" />
    </g>
    <g
       aria-label="CD"
       style="font-style:normal;font-variant:normal;font-weight:normal;font-stretch:normal;font-size:3.88055563px;line-height:1.25;font-family:'Arial Black';-inkscape-font-specification:'Arial Black, Normal';font-variant-ligatures:normal;font-variant-caps:normal;font-variant-numeric:normal;text-align:center;letter-spacing:0px;word-spacing:0px;writing-mode:lr-tb;text-anchor:middle;fill:#000000;fill-opacity:1;stroke:none;stroke-width:0.26458332"
       id="text1815">
      <path
         d="m 63.802439,280.307 0.752237,0.22738 q -0.07579,0.31643 -0.238745,0.52865 -0.162953,0.21221 -0.405488,0.32022 -0.24064,0.108 -0.613916,0.108 -0.452858,0 -0.740868,-0.13074 -0.286115,-0.13264 -0.494543,-0.46423 -0.208429,-0.33159 -0.208429,-0.84887 0,-0.68971 0.365697,-1.05919 0.367592,-0.37138 1.038352,-0.37138 0.52486,0 0.824239,0.21221 0.301274,0.21222 0.447174,0.65182 l -0.757921,0.16863 q -0.03979,-0.12695 -0.08337,-0.18569 -0.072,-0.0985 -0.176216,-0.15158 -0.104215,-0.0531 -0.233061,-0.0531 -0.2918,0 -0.447174,0.23496 -0.117477,0.17432 -0.117477,0.5476 0,0.46233 0.140215,0.63476 0.140215,0.17053 0.394119,0.17053 0.246324,0 0.371381,-0.13832 0.126952,-0.13832 0.183796,-0.4017 z"
         style="stroke-width:0.26458332"
         id="path1830"
         inkscape:connector-curvature="0" />
      <path
         d="m 64.981006,278.66421 h 1.275203 q 0.377065,0 0.608231,0.10231 0.233061,0.10232 0.384645,0.2937 0.151584,0.19137 0.219797,0.44528 0.06821,0.2539 0.06821,0.53812 0,0.44528 -0.102319,0.6916 -0.100425,0.24443 -0.280431,0.41118 -0.180006,0.16484 -0.38654,0.21979 -0.282325,0.0758 -0.511596,0.0758 h -1.275203 z m 0.858346,0.62907 v 1.51774 h 0.210323 q 0.269062,0 0.38275,-0.0587 0.113688,-0.0606 0.178112,-0.20843 0.06442,-0.14969 0.06442,-0.48317 0,-0.44149 -0.144005,-0.60445 -0.144005,-0.16295 -0.47749,-0.16295 z"
         style="stroke-width:0.26458332"
         id="path1832"
         inkscape:connector-curvature="0" />
    </g>
  </g>
</svg>
