<?xml version="1.0" encoding="UTF-8" standalone="no"?>
<!-- Created with Inkscape (http://www.inkscape.org/) -->

<svg
   xmlns:dc="http://purl.org/dc/elements/1.1/"
   xmlns:cc="http://creativecommons.org/ns#"
   xmlns:rdf="http://www.w3.org/1999/02/22-rdf-syntax-ns#"
   xmlns:svg="http://www.w3.org/2000/svg"
   xmlns="http://www.w3.org/2000/svg"
   xmlns:sodipodi="http://sodipodi.sourceforge.net/DTD/sodipodi-0.dtd"
   xmlns:inkscape="http://www.inkscape.org/namespaces/inkscape"
   width="90.474579mm"
   height="26.164583mm"
   viewBox="0 0 90.474579 26.164583"
   version="1.1"
   id="svg8"
   inkscape:version="0.92.2pre0 (973e216, 2017-07-25)"
   sodipodi:docname="BPanL.svg">
  <defs
     id="defs2" />
  <sodipodi:namedview
     id="base"
     pagecolor="#ffffff"
     bordercolor="#666666"
     borderopacity="1.0"
     inkscape:pageopacity="0.0"
     inkscape:pageshadow="2"
     inkscape:zoom="3.8832173"
     inkscape:cx="171.51135"
     inkscape:cy="38.75256"
     inkscape:document-units="mm"
     inkscape:current-layer="layer1"
     showgrid="true"
     fit-margin-top="0"
     fit-margin-left="0"
     fit-margin-right="0"
     fit-margin-bottom="0"
     inkscape:window-width="1920"
     inkscape:window-height="1016"
     inkscape:window-x="0"
     inkscape:window-y="27"
     inkscape:window-maximized="1"
     showguides="false">
    <inkscape:grid
       type="xygrid"
       id="grid6112"
       units="mm"
       spacingx="0.0099999999"
       spacingy="0.0099999999"
       dotted="false" />
  </sodipodi:namedview>
  <metadata
     id="metadata5">
    <rdf:RDF>
      <cc:Work
         rdf:about="">
        <dc:format>image/svg+xml</dc:format>
        <dc:type
           rdf:resource="http://purl.org/dc/dcmitype/StillImage" />
        <dc:title></dc:title>
      </cc:Work>
    </rdf:RDF>
  </metadata>
  <g
     inkscape:label="Layer 1"
     inkscape:groupmode="layer"
     id="layer1"
     transform="translate(0.26458281,-275.07739)">
    <rect
       id="rect10"
       width="89.809998"
       height="25.5"
       x="-0.26458281"
       y="275.74197"
       style="fill:none;stroke:#000000;stroke-width:0.26458332;stroke-miterlimit:4;stroke-dasharray:none"
       ry="2"
       rx="1.9999999" />
    <g
       aria-label="P"
       transform="scale(0.9999185,1.0000815)"
       style="font-style:normal;font-variant:normal;font-weight:normal;font-stretch:normal;font-size:4.23298788px;line-height:1.25;font-family:'Arial Black';-inkscape-font-specification:'Arial Black, ';text-align:center;letter-spacing:0px;word-spacing:0px;text-anchor:middle;fill:#000000;fill-opacity:1;stroke:none;stroke-width:0.26458332"
       id="text875" />
    <g
       aria-label="T"
       style="font-style:normal;font-variant:normal;font-weight:normal;font-stretch:normal;font-size:4.23333311px;line-height:1.25;font-family:'Arial Black';-inkscape-font-specification:'Arial Black, ';text-align:center;letter-spacing:0px;word-spacing:0px;text-anchor:middle;fill:#000000;fill-opacity:1;stroke:none;stroke-width:0.26458332"
       id="text879" />
    <g
       aria-label="L"
       style="font-style:normal;font-variant:normal;font-weight:normal;font-stretch:normal;font-size:4.23333311px;line-height:1.25;font-family:'Arial Black';-inkscape-font-specification:'Arial Black, ';text-align:center;letter-spacing:0px;word-spacing:0px;text-anchor:middle;fill:#000000;fill-opacity:1;stroke:none;stroke-width:0.26458332"
       id="text883" />
    <g
       aria-label="1"
       style="font-style:normal;font-variant:normal;font-weight:normal;font-stretch:normal;font-size:4.23253345px;line-height:1.25;font-family:'Arial Black';-inkscape-font-specification:'Arial Black, ';text-align:center;letter-spacing:0px;word-spacing:0px;text-anchor:middle;fill:#000000;fill-opacity:1;stroke:none;stroke-width:0.26458332"
       id="text887" />
    <g
       aria-label="2"
       style="font-style:normal;font-variant:normal;font-weight:normal;font-stretch:normal;font-size:4.23333311px;line-height:1.25;font-family:'Arial Black';-inkscape-font-specification:'Arial Black, ';text-align:center;letter-spacing:0px;word-spacing:0px;text-anchor:middle;fill:#000000;fill-opacity:1;stroke:none;stroke-width:0.26458332"
       id="text891" />
    <g
       aria-label="B"
       style="font-style:normal;font-variant:normal;font-weight:normal;font-stretch:normal;font-size:4.23333311px;line-height:1.25;font-family:'Arial Black';-inkscape-font-specification:'Arial Black, ';text-align:center;letter-spacing:0px;word-spacing:0px;text-anchor:middle;fill:#000000;fill-opacity:1;stroke:none;stroke-width:0.26458332"
       id="text895" />
    <g
       aria-label="B1"
       style="font-style:normal;font-variant:normal;font-weight:normal;font-stretch:normal;font-size:4.23333311px;line-height:1.25;font-family:'Arial Black';-inkscape-font-specification:'Arial Black, ';text-align:center;letter-spacing:0px;word-spacing:0px;text-anchor:middle;fill:#000000;fill-opacity:1;stroke:none;stroke-width:0.26458332"
       id="text899" />
    <g
       aria-label="RST"
       style="font-style:normal;font-variant:normal;font-weight:normal;font-stretch:normal;font-size:4.23333311px;line-height:1.25;font-family:'Arial Black';-inkscape-font-specification:'Arial Black, ';text-align:center;letter-spacing:0px;word-spacing:0px;text-anchor:middle;fill:#000000;fill-opacity:1;stroke:none;stroke-width:0.26458332"
       id="text903" />
    <g
       aria-label="Mic"
       style="font-style:normal;font-variant:normal;font-weight:normal;font-stretch:normal;font-size:4.23333311px;line-height:1.25;font-family:'Arial Black';-inkscape-font-specification:'Arial Black, ';text-align:center;letter-spacing:0px;word-spacing:0px;text-anchor:middle;fill:#000000;fill-opacity:1;stroke:none;stroke-width:0.26458332"
       id="text907" />
    <flowRoot
       xml:space="preserve"
       id="flowRoot913"
       style="font-style:normal;font-variant:normal;font-weight:normal;font-stretch:normal;font-size:16px;line-height:1.25;font-family:'Arial Black';-inkscape-font-specification:'Arial Black, ';text-align:center;letter-spacing:0px;word-spacing:0px;text-anchor:middle;fill:#000000;fill-opacity:1;stroke:none"
       transform="matrix(0.26458333,0,0,0.26458333,-0.13229166,274.9451)"><flowRegion
         id="flowRegion915"><rect
           id="rect917"
           width="263.17844"
           height="26.601942"
           x="42.356491"
           y="67.638939" /></flowRegion><flowPara
         id="flowPara919" /></flowRoot>    <rect
       style="fill:none;stroke:#000000;stroke-width:0.26458332;stroke-miterlimit:4;stroke-dasharray:none"
       id="rect6208"
       width="39"
       height="12.35"
       x="4.990417"
       y="282.54196" />
    <rect
       style="fill:none;stroke:#000000;stroke-width:0.26458332;stroke-miterlimit:4;stroke-dasharray:none"
       id="rect6210"
       width="39"
       height="12.35"
       x="45.42271"
       y="282.40967" />
    <g
       aria-label="Stereo"
       style="font-style:normal;font-variant:normal;font-weight:normal;font-stretch:normal;font-size:3.88055563px;line-height:1.25;font-family:'Arial Black';-inkscape-font-specification:'Arial Black, Normal';font-variant-ligatures:normal;font-variant-caps:normal;font-variant-numeric:normal;font-feature-settings:normal;text-align:center;letter-spacing:0px;word-spacing:0px;writing-mode:lr-tb;text-anchor:middle;fill:#000000;fill-opacity:1;stroke:none;stroke-width:0.26458332"
       id="text6218">
      <path
         d="m 17.578861,280.72299 0.81666,-0.0512 q 0.02653,0.19895 0.108004,0.30317 0.132636,0.16863 0.37896,0.16863 0.183796,0 0.282326,-0.0853 0.100424,-0.0872 0.100424,-0.20085 0,-0.108 -0.09474,-0.19327 -0.09474,-0.0853 -0.439594,-0.16106 -0.564651,-0.12695 -0.805291,-0.33727 -0.242535,-0.21033 -0.242535,-0.53623 0,-0.21412 0.123162,-0.4036 0.125057,-0.19137 0.373277,-0.29937 0.250113,-0.1099 0.684023,-0.1099 0.53244,0 0.810976,0.19895 0.280431,0.19706 0.333485,0.62908 l -0.809081,0.0474 q -0.03221,-0.18759 -0.136425,-0.27286 -0.10232,-0.0853 -0.284221,-0.0853 -0.149689,0 -0.225481,0.0644 -0.07579,0.0625 -0.07579,0.15348 0,0.0663 0.06253,0.11937 0.06063,0.0549 0.28801,0.10232 0.562756,0.12127 0.805291,0.24633 0.24443,0.12316 0.354328,0.30695 0.111794,0.1838 0.111794,0.41118 0,0.26716 -0.147795,0.49265 -0.147795,0.22548 -0.413067,0.34295 -0.265272,0.11559 -0.668865,0.11559 -0.708657,0 -0.981508,-0.27285 -0.272852,-0.27286 -0.308853,-0.6935 z"
         style="stroke-width:0.26458332"
         id="path1698" />
      <path
         d="m 21.412047,278.86419 v 0.7655 h 0.424435 v 0.56275 h -0.424435 v 0.71434 q 0,0.12885 0.02463,0.17054 0.0379,0.0644 0.132636,0.0644 0.08527,0 0.238745,-0.0493 l 0.05684,0.53243 q -0.286115,0.0625 -0.534334,0.0625 -0.28801,0 -0.424436,-0.0739 -0.136425,-0.0739 -0.202744,-0.22359 -0.06442,-0.15159 -0.06442,-0.48886 v -0.70866 h -0.28422 v -0.56275 h 0.28422 v -0.36949 z"
         style="stroke-width:0.26458332"
         id="path1700" />
      <path
         d="m 24.436151,280.8272 h -1.546158 q 0.02084,0.18569 0.100424,0.27664 0.111793,0.13075 0.2918,0.13075 0.113688,0 0.216007,-0.0569 0.06253,-0.036 0.134531,-0.12695 l 0.759816,0.0701 q -0.174322,0.30317 -0.420646,0.4358 -0.246325,0.13074 -0.706762,0.13074 -0.399803,0 -0.629074,-0.11179 -0.229271,-0.11369 -0.380855,-0.35812 -0.14969,-0.24632 -0.14969,-0.57791 0,-0.47181 0.301274,-0.76361 0.303168,-0.2918 0.835608,-0.2918 0.432015,0 0.682129,0.13074 0.250114,0.13074 0.380855,0.37896 0.130741,0.24822 0.130741,0.64613 z m -0.784448,-0.36948 q -0.02274,-0.22359 -0.121267,-0.32023 -0.09664,-0.0966 -0.255799,-0.0966 -0.183795,0 -0.293694,0.1459 -0.07011,0.091 -0.08906,0.27096 z"
         style="stroke-width:0.26458332"
         id="path1702" />
      <path
         d="m 24.801849,279.62969 h 0.721919 v 0.32969 q 0.104214,-0.21411 0.214113,-0.29369 0.111793,-0.0815 0.274746,-0.0815 0.170533,0 0.373276,0.10611 l -0.238745,0.54949 q -0.136425,-0.0568 -0.216007,-0.0568 -0.151584,0 -0.234956,0.12506 -0.119372,0.17621 -0.119372,0.65939 v 0.67455 h -0.774974 z"
         style="stroke-width:0.26458332"
         id="path1704" />
      <path
         d="m 28.809356,280.8272 h -1.546159 q 0.02084,0.18569 0.100425,0.27664 0.111793,0.13075 0.291799,0.13075 0.113689,0 0.216008,-0.0569 0.06253,-0.036 0.134531,-0.12695 l 0.759816,0.0701 q -0.174322,0.30317 -0.420646,0.4358 -0.246325,0.13074 -0.706762,0.13074 -0.399803,0 -0.629074,-0.11179 -0.229271,-0.11369 -0.380856,-0.35812 -0.149689,-0.24632 -0.149689,-0.57791 0,-0.47181 0.301274,-0.76361 0.303168,-0.2918 0.835608,-0.2918 0.432015,0 0.682128,0.13074 0.250114,0.13074 0.380856,0.37896 0.130741,0.24822 0.130741,0.64613 z m -0.784448,-0.36948 q -0.02274,-0.22359 -0.121267,-0.32023 -0.09663,-0.0966 -0.255799,-0.0966 -0.183796,0 -0.293694,0.1459 -0.07011,0.091 -0.08906,0.27096 z"
         style="stroke-width:0.26458332"
         id="path1706" />
      <path
         d="m 29.072733,280.64151 q 0,-0.46043 0.310748,-0.75792 0.310748,-0.29938 0.839398,-0.29938 0.604442,0 0.913294,0.35054 0.24822,0.28233 0.24822,0.69539 0,0.46423 -0.308853,0.76171 -0.306958,0.29559 -0.850767,0.29559 -0.485069,0 -0.784448,-0.24632 -0.367592,-0.30506 -0.367592,-0.79961 z m 0.77308,-0.002 q 0,0.26906 0.108004,0.39791 0.109898,0.12884 0.274746,0.12884 0.166743,0 0.272852,-0.12695 0.108003,-0.12695 0.108003,-0.40738 0,-0.26148 -0.108003,-0.38844 -0.108004,-0.12884 -0.267168,-0.12884 -0.168637,0 -0.278536,0.13074 -0.109898,0.12884 -0.109898,0.39412 z"
         style="stroke-width:0.26458332"
         id="path1708" />
    </g>
    <g
       aria-label="CD"
       style="font-style:normal;font-variant:normal;font-weight:normal;font-stretch:normal;font-size:3.88055563px;line-height:1.25;font-family:'Arial Black';-inkscape-font-specification:'Arial Black, Normal';font-variant-ligatures:normal;font-variant-caps:normal;font-variant-numeric:normal;font-feature-settings:normal;text-align:center;letter-spacing:0px;word-spacing:0px;writing-mode:lr-tb;text-anchor:middle;fill:#000000;fill-opacity:1;stroke:none;stroke-width:0.26458332"
       id="text6222">
      <path
         d="m 63.902438,280.50698 0.752236,0.22738 q -0.07579,0.31643 -0.238745,0.52865 -0.162953,0.21222 -0.405488,0.32022 -0.24064,0.108 -0.613916,0.108 -0.452857,0 -0.740867,-0.13074 -0.286116,-0.13263 -0.494544,-0.46423 -0.208428,-0.33159 -0.208428,-0.84887 0,-0.68971 0.365697,-1.05919 0.367591,-0.37138 1.038352,-0.37138 0.52486,0 0.824239,0.21222 0.301273,0.21221 0.447173,0.65181 l -0.757921,0.16863 q -0.03979,-0.12695 -0.08337,-0.18569 -0.072,-0.0985 -0.176217,-0.15158 -0.104214,-0.053 -0.233061,-0.053 -0.291799,0 -0.447173,0.23495 -0.117478,0.17432 -0.117478,0.5476 0,0.46233 0.140216,0.63476 0.140215,0.17053 0.394119,0.17053 0.246324,0 0.371381,-0.13832 0.126952,-0.13832 0.183796,-0.4017 z"
         style="stroke-width:0.26458332"
         id="path1711" />
      <path
         d="m 65.081005,278.86419 h 1.275202 q 0.377066,0 0.608232,0.10232 0.23306,0.10232 0.384645,0.29369 0.151584,0.19138 0.219797,0.44528 0.06821,0.2539 0.06821,0.53812 0,0.44528 -0.10232,0.69161 -0.100424,0.24443 -0.280431,0.41117 -0.180006,0.16485 -0.386539,0.2198 -0.282326,0.0758 -0.511597,0.0758 h -1.275202 z m 0.858345,0.62907 v 1.51774 h 0.210324 q 0.269062,0 0.38275,-0.0587 0.113688,-0.0606 0.178111,-0.20843 0.06442,-0.14969 0.06442,-0.48317 0,-0.44149 -0.144005,-0.60445 -0.144005,-0.16295 -0.47749,-0.16295 z"
         style="stroke-width:0.26458332"
         id="path1713" />
    </g>
  </g>
</svg>
