<?xml version="1.0" encoding="UTF-8" standalone="no"?>
<!-- Created with Inkscape (http://www.inkscape.org/) -->

<svg
   xmlns:dc="http://purl.org/dc/elements/1.1/"
   xmlns:cc="http://creativecommons.org/ns#"
   xmlns:rdf="http://www.w3.org/1999/02/22-rdf-syntax-ns#"
   xmlns:svg="http://www.w3.org/2000/svg"
   xmlns="http://www.w3.org/2000/svg"
   xmlns:sodipodi="http://sodipodi.sourceforge.net/DTD/sodipodi-0.dtd"
   xmlns:inkscape="http://www.inkscape.org/namespaces/inkscape"
   width="90.474579mm"
   height="26.164583mm"
   viewBox="0 0 90.474579 26.164583"
   version="1.1"
   id="svg8"
   inkscape:version="0.92.2pre0 (973e216, 2017-07-25)"
   sodipodi:docname="FPanL.svg">
  <defs
     id="defs2" />
  <sodipodi:namedview
     id="base"
     pagecolor="#ffffff"
     bordercolor="#666666"
     borderopacity="1.0"
     inkscape:pageopacity="0.0"
     inkscape:pageshadow="2"
     inkscape:zoom="3.8832173"
     inkscape:cx="169.71968"
     inkscape:cy="48.188974"
     inkscape:document-units="mm"
     inkscape:current-layer="layer1"
     showgrid="true"
     fit-margin-top="0"
     fit-margin-left="0"
     fit-margin-right="0"
     fit-margin-bottom="0"
     inkscape:window-width="1920"
     inkscape:window-height="1016"
     inkscape:window-x="0"
     inkscape:window-y="27"
     inkscape:window-maximized="1"
     showguides="false">
    <inkscape:grid
       type="xygrid"
       id="grid6112"
       units="mm"
       spacingx="0.0099999999"
       spacingy="0.0099999999"
       dotted="false" />
  </sodipodi:namedview>
  <metadata
     id="metadata5">
    <rdf:RDF>
      <cc:Work
         rdf:about="">
        <dc:format>image/svg+xml</dc:format>
        <dc:type
           rdf:resource="http://purl.org/dc/dcmitype/StillImage" />
        <dc:title />
      </cc:Work>
    </rdf:RDF>
  </metadata>
  <g
     inkscape:label="Layer 1"
     inkscape:groupmode="layer"
     id="layer1"
     transform="translate(0.26458281,-275.07739)">
    <rect
       id="rect10"
       width="89.809998"
       height="25.5"
       x="-0.26458281"
       y="275.74197"
       style="fill:none;stroke:#000000;stroke-width:0.26458332;stroke-miterlimit:4;stroke-dasharray:none"
       ry="2"
       rx="1.9999999" />
    <circle
       style="fill:none;stroke:#000000;stroke-width:0.26458332;stroke-miterlimit:4;stroke-dasharray:none"
       id="path12"
       cx="14.795626"
       cy="289.89175"
       r="1.4502083" />
    <circle
       style="fill:none;stroke:#000000;stroke-width:0.26458332;stroke-miterlimit:4;stroke-dasharray:none"
       id="path16"
       cx="19.87571"
       cy="289.89166"
       r="1.4502084" />
    <circle
       style="fill:none;stroke:#000000;stroke-width:0.26458332;stroke-miterlimit:4;stroke-dasharray:none"
       id="path18"
       cx="24.955709"
       cy="289.89166"
       r="1.4499995" />
    <circle
       style="fill:none;stroke:#000000;stroke-width:0.26458332;stroke-miterlimit:4;stroke-dasharray:none"
       id="path20"
       cx="30.035709"
       cy="289.89166"
       r="1.4502083" />
    <circle
       style="fill:none;stroke:#000000;stroke-width:0.26458332;stroke-miterlimit:4;stroke-dasharray:none"
       id="path22"
       cx="35.115707"
       cy="289.89166"
       r="1.4502083" />
    <circle
       style="fill:none;stroke:#000000;stroke-width:0.26458332;stroke-miterlimit:4;stroke-dasharray:none"
       id="path24"
       cx="40.195709"
       cy="289.89166"
       r="1.4502083" />
    <circle
       style="fill:none;stroke:#000000;stroke-width:0.26458332;stroke-miterlimit:4;stroke-dasharray:none"
       id="path26"
       cx="45.275707"
       cy="289.89166"
       r="1.4502083" />
    <circle
       style="fill:none;stroke:#000000;stroke-width:0.26458332;stroke-miterlimit:4;stroke-dasharray:none"
       id="path28"
       cx="53.185707"
       cy="290.94168"
       r="1.7502084" />
    <ellipse
       style="fill:none;stroke:#000000;stroke-width:0.26458332;stroke-miterlimit:4;stroke-dasharray:none"
       id="path30"
       cx="62.155708"
       cy="287.99167"
       rx="3.0002084"
       ry="3.0002081" />
    <circle
       style="fill:none;stroke:#000000;stroke-width:0.26458332;stroke-miterlimit:4;stroke-dasharray:none"
       id="path831"
       cx="71.045708"
       cy="287.99167"
       r="3.0002084" />
    <g
       aria-label="P"
       transform="scale(0.9999185,1.0000815)"
       style="font-style:normal;font-variant:normal;font-weight:normal;font-stretch:normal;font-size:4.23298788px;line-height:1.25;font-family:'Arial Black';-inkscape-font-specification:'Arial Black, ';text-align:center;letter-spacing:0px;word-spacing:0px;text-anchor:middle;fill:#000000;fill-opacity:1;stroke:none;stroke-width:0.26458332"
       id="text875" />
    <g
       aria-label="T"
       style="font-style:normal;font-variant:normal;font-weight:normal;font-stretch:normal;font-size:4.23333311px;line-height:1.25;font-family:'Arial Black';-inkscape-font-specification:'Arial Black, ';text-align:center;letter-spacing:0px;word-spacing:0px;text-anchor:middle;fill:#000000;fill-opacity:1;stroke:none;stroke-width:0.26458332"
       id="text879" />
    <g
       aria-label="L"
       style="font-style:normal;font-variant:normal;font-weight:normal;font-stretch:normal;font-size:4.23333311px;line-height:1.25;font-family:'Arial Black';-inkscape-font-specification:'Arial Black, ';text-align:center;letter-spacing:0px;word-spacing:0px;text-anchor:middle;fill:#000000;fill-opacity:1;stroke:none;stroke-width:0.26458332"
       id="text883" />
    <g
       aria-label="1"
       style="font-style:normal;font-variant:normal;font-weight:normal;font-stretch:normal;font-size:4.23253345px;line-height:1.25;font-family:'Arial Black';-inkscape-font-specification:'Arial Black, ';text-align:center;letter-spacing:0px;word-spacing:0px;text-anchor:middle;fill:#000000;fill-opacity:1;stroke:none;stroke-width:0.26458332"
       id="text887" />
    <g
       aria-label="2"
       style="font-style:normal;font-variant:normal;font-weight:normal;font-stretch:normal;font-size:4.23333311px;line-height:1.25;font-family:'Arial Black';-inkscape-font-specification:'Arial Black, ';text-align:center;letter-spacing:0px;word-spacing:0px;text-anchor:middle;fill:#000000;fill-opacity:1;stroke:none;stroke-width:0.26458332"
       id="text891" />
    <g
       aria-label="B"
       style="font-style:normal;font-variant:normal;font-weight:normal;font-stretch:normal;font-size:4.23333311px;line-height:1.25;font-family:'Arial Black';-inkscape-font-specification:'Arial Black, ';text-align:center;letter-spacing:0px;word-spacing:0px;text-anchor:middle;fill:#000000;fill-opacity:1;stroke:none;stroke-width:0.26458332"
       id="text895" />
    <g
       aria-label="B1"
       style="font-style:normal;font-variant:normal;font-weight:normal;font-stretch:normal;font-size:4.23333311px;line-height:1.25;font-family:'Arial Black';-inkscape-font-specification:'Arial Black, ';text-align:center;letter-spacing:0px;word-spacing:0px;text-anchor:middle;fill:#000000;fill-opacity:1;stroke:none;stroke-width:0.26458332"
       id="text899" />
    <g
       aria-label="RST"
       style="font-style:normal;font-variant:normal;font-weight:normal;font-stretch:normal;font-size:4.23333311px;line-height:1.25;font-family:'Arial Black';-inkscape-font-specification:'Arial Black, ';text-align:center;letter-spacing:0px;word-spacing:0px;text-anchor:middle;fill:#000000;fill-opacity:1;stroke:none;stroke-width:0.26458332"
       id="text903" />
    <g
       aria-label="Mic"
       style="font-style:normal;font-variant:normal;font-weight:normal;font-stretch:normal;font-size:4.23333311px;line-height:1.25;font-family:'Arial Black';-inkscape-font-specification:'Arial Black, ';text-align:center;letter-spacing:0px;word-spacing:0px;text-anchor:middle;fill:#000000;fill-opacity:1;stroke:none;stroke-width:0.26458332"
       id="text907" />
    <flowRoot
       xml:space="preserve"
       id="flowRoot913"
       style="font-style:normal;font-variant:normal;font-weight:normal;font-stretch:normal;font-size:16px;line-height:1.25;font-family:'Arial Black';-inkscape-font-specification:'Arial Black, ';text-align:center;letter-spacing:0px;word-spacing:0px;text-anchor:middle;fill:#000000;fill-opacity:1;stroke:none"
       transform="matrix(0.26458333,0,0,0.26458333,-0.13229166,274.9451)"><flowRegion
         id="flowRegion915"><rect
           id="rect917"
           width="263.17844"
           height="26.601942"
           x="42.356491"
           y="67.638939" /></flowRegion><flowPara
         id="flowPara919" /></flowRoot>    <g
       aria-label="P"
       style="font-style:normal;font-variant:normal;font-weight:normal;font-stretch:normal;font-size:4.23333311px;line-height:1.25;font-family:'Arial Black';-inkscape-font-specification:'Arial Black, ';text-align:center;letter-spacing:0px;word-spacing:0px;text-anchor:middle;fill:#000000;fill-opacity:1;stroke:none;stroke-width:0.26458332"
       id="text6116">
      <path
         d="m 13.673694,294.5642 h 1.426786 q 0.466121,0 0.697287,0.22169 0.233061,0.22169 0.233061,0.63097 0,0.42065 -0.253903,0.6575 -0.252009,0.23685 -0.771185,0.23685 h -0.469911 v 1.03077 h -0.862135 z m 0.862135,1.18425 h 0.210323 q 0.248219,0 0.348644,-0.0853 0.100424,-0.0872 0.100424,-0.22169 0,-0.13074 -0.08716,-0.22169 -0.08716,-0.091 -0.327801,-0.091 h -0.244429 z"
         style="font-size:3.88055563px;stroke-width:0.26458332"
         id="path972" />
    </g>
    <g
       aria-label="T"
       style="font-style:normal;font-variant:normal;font-weight:normal;font-stretch:normal;font-size:3.88055563px;line-height:1.25;font-family:'Arial Black';-inkscape-font-specification:'Arial Black, Normal';font-variant-ligatures:normal;font-variant-caps:normal;font-variant-numeric:normal;font-feature-settings:normal;text-align:center;letter-spacing:0px;word-spacing:0px;writing-mode:lr-tb;text-anchor:middle;fill:#000000;fill-opacity:1;stroke:none;stroke-width:0.26458332"
       id="text6147">
      <path
         d="m 18.562318,294.5642 h 2.609143 v 0.68592 h -0.875399 v 2.09186 h -0.858346 v -2.09186 h -0.875398 z"
         style="stroke-width:0.26458332"
         id="path975" />
    </g>
    <g
       aria-label="L"
       style="font-style:normal;font-variant:normal;font-weight:normal;font-stretch:normal;font-size:3.88055563px;line-height:1.25;font-family:'Arial Black';-inkscape-font-specification:'Arial Black, Normal';font-variant-ligatures:normal;font-variant-caps:normal;font-variant-numeric:normal;font-feature-settings:normal;text-align:center;letter-spacing:0px;word-spacing:0px;writing-mode:lr-tb;text-anchor:middle;fill:#000000;fill-opacity:1;stroke:none;stroke-width:0.26458332"
       id="text6151">
      <path
         d="m 23.943593,294.5642 h 0.858346 v 2.09376 h 1.339625 v 0.68402 h -2.197971 z"
         style="stroke-width:0.26458332"
         id="path978" />
    </g>
    <g
       aria-label="1"
       style="font-style:normal;font-variant:normal;font-weight:normal;font-stretch:normal;font-size:3.88055563px;line-height:1.25;font-family:'Arial Black';-inkscape-font-specification:'Arial Black, Normal';font-variant-ligatures:normal;font-variant-caps:normal;font-variant-numeric:normal;font-feature-settings:normal;text-align:center;letter-spacing:0px;word-spacing:0px;writing-mode:lr-tb;text-anchor:middle;fill:#000000;fill-opacity:1;stroke:none;stroke-width:0.26458332"
       id="text6155">
      <path
         d="m 30.647435,294.51683 v 2.82515 h -0.780659 v -1.85122 q -0.18948,0.144 -0.367591,0.23306 -0.176217,0.089 -0.443384,0.17053 v -0.63286 q 0.394119,-0.12695 0.612021,-0.30507 0.217902,-0.17811 0.341065,-0.43959 z"
         style="stroke-width:0.26458332"
         id="path981" />
    </g>
    <g
       aria-label="2"
       style="font-style:normal;font-variant:normal;font-weight:normal;font-stretch:normal;font-size:3.88055563px;line-height:1.25;font-family:'Arial Black';-inkscape-font-specification:'Arial Black, Normal';font-variant-ligatures:normal;font-variant-caps:normal;font-variant-numeric:normal;font-feature-settings:normal;text-align:center;letter-spacing:0px;word-spacing:0px;writing-mode:lr-tb;text-anchor:middle;fill:#000000;fill-opacity:1;stroke:none;stroke-width:0.26458332"
       id="text6159">
      <path
         d="m 36.237141,297.34198 h -2.315449 q 0.03979,-0.34296 0.24064,-0.64423 0.202744,-0.30317 0.757921,-0.71434 0.339169,-0.25201 0.43391,-0.38275 0.09474,-0.13074 0.09474,-0.24822 0,-0.12695 -0.09474,-0.21601 -0.09285,-0.091 -0.234956,-0.091 -0.147795,0 -0.242535,0.0928 -0.09284,0.0928 -0.125057,0.32781 l -0.773079,-0.0625 q 0.04548,-0.32591 0.166743,-0.50781 0.121267,-0.1838 0.341064,-0.28043 0.221692,-0.0985 0.612021,-0.0985 0.407383,0 0.632864,0.0928 0.227377,0.0928 0.356223,0.28612 0.130742,0.19137 0.130742,0.43012 0,0.2539 -0.14969,0.48507 -0.147794,0.23117 -0.540019,0.50781 -0.23306,0.16105 -0.312642,0.22548 -0.07769,0.0644 -0.183796,0.16864 h 1.205095 z"
         style="stroke-width:0.26458332"
         id="path984" />
    </g>
    <g
       aria-label="B"
       style="font-style:normal;font-variant:normal;font-weight:normal;font-stretch:normal;font-size:3.88055563px;line-height:1.25;font-family:'Arial Black';-inkscape-font-specification:'Arial Black, Normal';font-variant-ligatures:normal;font-variant-caps:normal;font-variant-numeric:normal;font-feature-settings:normal;text-align:center;letter-spacing:0px;word-spacing:0px;writing-mode:lr-tb;text-anchor:middle;fill:#000000;fill-opacity:1;stroke:none;stroke-width:0.26458332"
       id="text6163">
      <path
         d="m 38.973268,294.5642 h 1.606792 q 0.401699,0 0.615811,0.19895 0.216008,0.19896 0.216008,0.49265 0,0.24633 -0.153479,0.42254 -0.10232,0.11748 -0.299379,0.18569 0.299379,0.072 0.439594,0.24822 0.14211,0.17432 0.14211,0.4396 0,0.216 -0.100424,0.38843 -0.100425,0.17243 -0.274747,0.27285 -0.108003,0.0625 -0.325906,0.091 -0.289904,0.0379 -0.384645,0.0379 h -1.481735 z m 0.865925,1.08951 h 0.373276 q 0.200849,0 0.278536,-0.0682 0.07958,-0.0701 0.07958,-0.20085 0,-0.12127 -0.07958,-0.18948 -0.07769,-0.0682 -0.272852,-0.0682 h -0.37896 z m 0,1.09141 h 0.437699 q 0.221692,0 0.312642,-0.0777 0.09095,-0.0796 0.09095,-0.21222 0,-0.12316 -0.09095,-0.19706 -0.08906,-0.0758 -0.314537,-0.0758 h -0.435804 z"
         style="stroke-width:0.26458332"
         id="path987" />
    </g>
    <g
       aria-label="B1"
       style="font-style:normal;font-variant:normal;font-weight:normal;font-stretch:normal;font-size:3.88055563px;line-height:1.25;font-family:'Arial Black';-inkscape-font-specification:'Arial Black, Normal';font-variant-ligatures:normal;font-variant-caps:normal;font-variant-numeric:normal;font-feature-settings:normal;text-align:center;letter-spacing:0px;word-spacing:0px;writing-mode:lr-tb;text-anchor:middle;fill:#000000;fill-opacity:1;stroke:none;stroke-width:0.26458332"
       id="text6167">
      <path
         d="m 42.757221,294.5642 h 1.606792 q 0.401699,0 0.615811,0.19895 0.216008,0.19896 0.216008,0.49265 0,0.24633 -0.153479,0.42254 -0.10232,0.11748 -0.299379,0.18569 0.299379,0.072 0.439594,0.24822 0.14211,0.17432 0.14211,0.4396 0,0.216 -0.100424,0.38843 -0.100425,0.17243 -0.274747,0.27285 -0.108003,0.0625 -0.325906,0.091 -0.289904,0.0379 -0.384644,0.0379 h -1.481736 z m 0.865925,1.08951 h 0.373276 q 0.200849,0 0.278536,-0.0682 0.07958,-0.0701 0.07958,-0.20085 0,-0.12127 -0.07958,-0.18948 -0.07769,-0.0682 -0.272852,-0.0682 h -0.37896 z m 0,1.09141 h 0.437699 q 0.221692,0 0.312642,-0.0777 0.09095,-0.0796 0.09095,-0.21222 0,-0.12316 -0.09095,-0.19706 -0.08905,-0.0758 -0.314537,-0.0758 h -0.435804 z"
         style="stroke-width:0.26458332"
         id="path990" />
      <path
         d="m 47.395698,294.51683 v 2.82515 h -0.780659 v -1.85122 q -0.18948,0.144 -0.367592,0.23306 -0.176216,0.089 -0.443383,0.17053 v -0.63286 q 0.394118,-0.12695 0.612021,-0.30507 0.217902,-0.17811 0.341064,-0.43959 z"
         style="stroke-width:0.26458332"
         id="path992" />
    </g>
    <g
       aria-label="RST"
       style="font-style:normal;font-variant:normal;font-weight:normal;font-stretch:normal;font-size:3.88055563px;line-height:1.25;font-family:'Arial Black';-inkscape-font-specification:'Arial Black, Normal';font-variant-ligatures:normal;font-variant-caps:normal;font-variant-numeric:normal;font-feature-settings:normal;text-align:center;letter-spacing:0px;word-spacing:0px;writing-mode:lr-tb;text-anchor:middle;fill:#000000;fill-opacity:1;stroke:none;stroke-width:0.26458332"
       id="text6171">
      <path
         d="m 49.168436,297.34198 v -2.77778 h 1.430576 q 0.397908,0 0.608231,0.0682 0.210323,0.0682 0.33917,0.25391 0.128847,0.18379 0.128847,0.44906 0,0.23117 -0.09853,0.39981 -0.09853,0.16674 -0.270957,0.27095 -0.109899,0.0663 -0.301274,0.1099 0.153479,0.0512 0.223587,0.10232 0.04737,0.0341 0.136426,0.1459 0.09095,0.1118 0.121267,0.17243 l 0.414962,0.80529 h -0.970139 l -0.458542,-0.84887 q -0.08716,-0.16485 -0.155374,-0.21411 -0.09284,-0.0644 -0.210323,-0.0644 h -0.07579 v 1.12741 z m 0.862135,-1.65227 h 0.361907 q 0.05874,0 0.227377,-0.0379 0.08527,-0.0171 0.13832,-0.0872 0.05495,-0.0701 0.05495,-0.16106 0,-0.13453 -0.08527,-0.20654 -0.08527,-0.072 -0.320221,-0.072 h -0.377066 z"
         style="stroke-width:0.26458332"
         id="path995" />
      <path
         d="m 52.023903,296.423 0.81666,-0.0512 q 0.02653,0.19896 0.108004,0.30317 0.132636,0.16864 0.37896,0.16864 0.183796,0 0.282326,-0.0853 0.100425,-0.0872 0.100425,-0.20085 0,-0.108 -0.09474,-0.19327 -0.09474,-0.0853 -0.439594,-0.16106 -0.564651,-0.12695 -0.805291,-0.33727 -0.242535,-0.21032 -0.242535,-0.53623 0,-0.21411 0.123163,-0.40359 0.125057,-0.19138 0.373276,-0.29938 0.250114,-0.1099 0.684023,-0.1099 0.53244,0 0.810976,0.19895 0.280431,0.19706 0.333485,0.62908 l -0.809081,0.0474 q -0.03221,-0.18759 -0.136425,-0.27285 -0.10232,-0.0853 -0.284221,-0.0853 -0.149689,0 -0.225481,0.0644 -0.07579,0.0625 -0.07579,0.15348 0,0.0663 0.06253,0.11938 0.06063,0.0549 0.28801,0.10231 0.562757,0.12127 0.805291,0.24633 0.24443,0.12316 0.354328,0.30696 0.111794,0.18379 0.111794,0.41117 0,0.26717 -0.147795,0.49265 -0.147795,0.22548 -0.413067,0.34296 -0.265272,0.11558 -0.668865,0.11558 -0.708656,0 -0.981508,-0.27285 -0.272851,-0.27285 -0.308853,-0.6935 z"
         style="stroke-width:0.26458332"
         id="path997" />
      <path
         d="m 54.782735,294.5642 h 2.609144 v 0.68592 H 56.51648 v 2.09186 h -0.858346 v -2.09186 h -0.875399 z"
         style="stroke-width:0.26458332"
         id="path999" />
    </g>
    <g
       aria-label="Mic"
       style="font-style:normal;font-variant:normal;font-weight:normal;font-stretch:normal;font-size:3.88055563px;line-height:1.25;font-family:'Arial Black';-inkscape-font-specification:'Arial Black, Normal';font-variant-ligatures:normal;font-variant-caps:normal;font-variant-numeric:normal;font-feature-settings:normal;text-align:center;letter-spacing:0px;word-spacing:0px;writing-mode:lr-tb;text-anchor:middle;fill:#000000;fill-opacity:1;stroke:none;stroke-width:0.26458332"
       id="text6175">
      <path
         d="m 58.655714,294.5642 h 1.129303 l 0.435804,1.69016 0.43391,-1.69016 h 1.125513 v 2.77778 h -0.701077 v -2.11839 l -0.543809,2.11839 H 59.9006 l -0.541914,-2.11839 v 2.11839 h -0.702972 z"
         style="stroke-width:0.26458332"
         id="path1002" />
      <path
         d="m 62.303209,294.5642 h 0.771185 v 0.52486 h -0.771185 z m 0,0.7655 h 0.771185 v 2.01228 h -0.771185 z"
         style="stroke-width:0.26458332"
         id="path1004" />
      <path
         d="m 65.071516,296.55564 0.733288,0.0834 q -0.06063,0.22927 -0.198954,0.39791 -0.138321,0.16674 -0.354328,0.25958 -0.214113,0.0928 -0.545703,0.0928 -0.320222,0 -0.534335,-0.0587 -0.212218,-0.0606 -0.365697,-0.19327 -0.153479,-0.13453 -0.240639,-0.31454 -0.08716,-0.18 -0.08716,-0.47749 0,-0.31074 0.106109,-0.51728 0.07769,-0.15158 0.212217,-0.27095 0.134531,-0.12127 0.276642,-0.18001 0.225481,-0.0928 0.577914,-0.0928 0.492649,0 0.750342,0.17622 0.259588,0.17622 0.363802,0.51539 l -0.725709,0.0966 q -0.03411,-0.12884 -0.125057,-0.19327 -0.08906,-0.0663 -0.24064,-0.0663 -0.191375,0 -0.310748,0.13832 -0.117477,0.13643 -0.117477,0.41497 0,0.24822 0.117477,0.37706 0.117478,0.12885 0.299379,0.12885 0.151584,0 0.253904,-0.0777 0.104214,-0.0777 0.155374,-0.23874 z"
         style="stroke-width:0.26458332"
         id="path1006" />
    </g>
    <g
       aria-label="Line"
       style="font-style:normal;font-variant:normal;font-weight:normal;font-stretch:normal;font-size:3.88055563px;line-height:1.25;font-family:'Arial Black';-inkscape-font-specification:'Arial Black, Normal';font-variant-ligatures:normal;font-variant-caps:normal;font-variant-numeric:normal;font-feature-settings:normal;text-align:center;letter-spacing:0px;word-spacing:0px;writing-mode:lr-tb;text-anchor:middle;fill:#000000;fill-opacity:1;stroke:none;stroke-width:0.26458332"
       id="text6179">
      <path
         d="m 66.793473,294.5642 h 0.858346 v 2.09376 h 1.339625 v 0.68402 h -2.197971 z"
         style="stroke-width:0.26458332"
         id="path1009" />
      <path
         d="m 69.362825,294.5642 h 0.771185 v 0.52486 h -0.771185 z m 0,0.7655 h 0.771185 v 2.01228 h -0.771185 z"
         style="stroke-width:0.26458332"
         id="path1011" />
      <path
         d="m 70.630449,295.3297 h 0.71813 v 0.3278 q 0.161058,-0.20085 0.325906,-0.28611 0.164848,-0.0872 0.401698,-0.0872 0.320221,0 0.500228,0.19138 0.181901,0.18948 0.181901,0.58739 v 1.27899 h -0.774974 v -1.10656 q 0,-0.18948 -0.07011,-0.26717 -0.07011,-0.0796 -0.19706,-0.0796 -0.140215,0 -0.227376,0.10611 -0.08716,0.1061 -0.08716,0.38085 v 0.96635 h -0.771184 z"
         style="stroke-width:0.26458332"
         id="path1013" />
      <path
         d="m 75.45651,296.52721 h -1.546159 q 0.02084,0.1857 0.100425,0.27665 0.111793,0.13074 0.2918,0.13074 0.113688,0 0.216007,-0.0568 0.06253,-0.036 0.134531,-0.12695 l 0.759816,0.0701 q -0.174322,0.30317 -0.420646,0.4358 -0.246325,0.13075 -0.706762,0.13075 -0.399803,0 -0.629074,-0.1118 -0.229271,-0.11369 -0.380855,-0.35812 -0.14969,-0.24632 -0.14969,-0.57791 0,-0.47181 0.301274,-0.76361 0.303168,-0.2918 0.835608,-0.2918 0.432015,0 0.682129,0.13075 0.250114,0.13074 0.380855,0.37896 0.130741,0.24822 0.130741,0.64612 z m -0.784448,-0.36948 q -0.02274,-0.22359 -0.121267,-0.32022 -0.09663,-0.0966 -0.255799,-0.0966 -0.183795,0 -0.293694,0.1459 -0.07011,0.0909 -0.08906,0.27096 z"
         style="stroke-width:0.26458332"
         id="path1015" />
    </g>
    <g
       aria-label="Blubaru"
       style="font-style:normal;font-variant:normal;font-weight:normal;font-stretch:normal;font-size:7.05555534px;line-height:1.25;font-family:'Arial Black';-inkscape-font-specification:'Arial Black, Normal';font-variant-ligatures:normal;font-variant-caps:normal;font-variant-numeric:normal;font-feature-settings:normal;text-align:start;letter-spacing:0px;word-spacing:0px;writing-mode:lr-tb;text-anchor:start;fill:#000000;fill-opacity:1;stroke:none;stroke-width:0.26458332"
       id="text6187">
      <path
         d="m 7.1556264,279.59146 h 2.9214406 q 0.73036,0 1.119656,0.36173 0.392741,0.36174 0.392741,0.89573 0,0.44786 -0.279053,0.76825 -0.186035,0.2136 -0.544325,0.33762 0.544325,0.13092 0.799262,0.45131 0.258383,0.31695 0.258383,0.79926 0,0.39274 -0.18259,0.70625 -0.18259,0.3135 -0.499539,0.49609 -0.196371,0.11369 -0.592557,0.16537 -0.527099,0.0689 -0.699354,0.0689 H 7.1556264 Z m 1.5744086,1.98093 h 0.6786838 q 0.3651801,0 0.506429,-0.12403 0.1446942,-0.12746 0.1446942,-0.36518 0,-0.22048 -0.1446942,-0.34451 -0.1412489,-0.12402 -0.4960937,-0.12402 H 8.730035 Z m 0,1.98437 h 0.795817 q 0.4030762,0 0.568441,-0.14125 0.165364,-0.14469 0.165364,-0.38585 0,-0.22393 -0.165364,-0.35829 -0.1619197,-0.1378 -0.5718861,-0.1378 H 8.730035 Z"
         style="stroke-width:0.26458332"
         id="path957" />
      <path
         d="m 12.591987,279.59146 h 1.405599 v 5.05051 h -1.405599 z"
         style="stroke-width:0.26458332"
         id="path959" />
      <path
         d="m 18.755263,284.64197 h -1.309137 v -0.59256 q -0.292833,0.36518 -0.592556,0.52021 -0.296278,0.15503 -0.73036,0.15503 -0.578776,0 -0.909505,-0.34451 -0.327284,-0.34795 -0.327284,-1.06798 v -2.32888 h 1.409044 v 2.01193 q 0,0.34451 0.127468,0.48921 0.127469,0.14469 0.35829,0.14469 0.251492,0 0.409966,-0.19293 0.16192,-0.19292 0.16192,-0.69246 v -1.76044 h 1.402154 z"
         style="stroke-width:0.26458332"
         id="path961" />
      <path
         d="m 19.619982,279.59146 h 1.415934 v 1.75011 q 0.210151,-0.22049 0.475424,-0.33073 0.268717,-0.11025 0.592556,-0.11025 0.668349,0 1.105876,0.48232 0.437527,0.47887 0.437527,1.37804 0,0.59944 -0.199816,1.05764 -0.199815,0.45475 -0.55466,0.68213 -0.3514,0.22393 -0.782037,0.22393 -0.368625,0 -0.675238,-0.15847 -0.230822,-0.12403 -0.502984,-0.46509 v 0.54088 h -1.312582 z m 1.405599,3.21083 q 0,0.47197 0.1757,0.68557 0.179145,0.21015 0.451308,0.21015 0.251492,0 0.420301,-0.2067 0.172255,-0.21015 0.172255,-0.7028 0,-0.43409 -0.16881,-0.63735 -0.165364,-0.20326 -0.403076,-0.20326 -0.285943,0 -0.468533,0.2136 -0.179145,0.21015 -0.179145,0.64079 z"
         style="stroke-width:0.26458332"
         id="path963" />
      <path
         d="m 25.604113,282.16839 -1.340142,-0.14125 q 0.07579,-0.3514 0.217041,-0.55121 0.144694,-0.20327 0.413411,-0.3514 0.192926,-0.1068 0.530545,-0.16537 0.337619,-0.0586 0.73036,-0.0586 0.630453,0 1.012858,0.0723 0.382406,0.0689 0.637343,0.29283 0.179145,0.15503 0.282498,0.44098 0.103353,0.28249 0.103353,0.54088 v 1.61575 q 0,0.25838 0.03101,0.40652 0.03445,0.14469 0.144694,0.37207 h -1.316027 q -0.07924,-0.14125 -0.103353,-0.2136 -0.02412,-0.0758 -0.04823,-0.23426 -0.275608,0.26527 -0.54777,0.37896 -0.37207,0.15158 -0.864719,0.15158 -0.654568,0 -0.995633,-0.30317 -0.337619,-0.30317 -0.337619,-0.74758 0,-0.41686 0.244602,-0.68558 0.244601,-0.26872 0.902615,-0.39963 0.788927,-0.15847 1.023193,-0.22049 0.234267,-0.0654 0.496094,-0.1688 0,-0.25839 -0.106798,-0.36174 -0.106798,-0.10335 -0.375516,-0.10335 -0.344509,0 -0.516764,0.11024 -0.134359,0.0861 -0.217041,0.32384 z m 1.216119,0.73725 q -0.289388,0.10335 -0.602892,0.18259 -0.427192,0.11369 -0.54088,0.22393 -0.117133,0.11369 -0.117133,0.25838 0,0.16537 0.113688,0.27217 0.117133,0.10335 0.341064,0.10335 0.234267,0 0.434082,-0.11369 0.203261,-0.11369 0.285943,-0.27561 0.08613,-0.16536 0.08613,-0.42719 z"
         style="stroke-width:0.26458332"
         id="path965" />
      <path
         d="m 29.052654,280.98328 h 1.312581 v 0.59944 q 0.18948,-0.38929 0.389296,-0.53399 0.20326,-0.14814 0.499539,-0.14814 0.310058,0 0.678683,0.19293 l -0.434082,0.99908 q -0.248046,-0.10336 -0.39274,-0.10336 -0.275608,0 -0.427192,0.22738 -0.217041,0.32039 -0.217041,1.19889 v 1.22646 h -1.409044 z"
         style="stroke-width:0.26458332"
         id="path967" />
      <path
         d="m 36.263238,284.64197 h -1.309136 v -0.59256 q -0.292834,0.36518 -0.592557,0.52021 -0.296278,0.15503 -0.73036,0.15503 -0.578776,0 -0.909505,-0.34451 -0.327284,-0.34795 -0.327284,-1.06798 v -2.32888 h 1.409044 v 2.01193 q 0,0.34451 0.127468,0.48921 0.127469,0.14469 0.35829,0.14469 0.251492,0 0.409967,-0.19293 0.161919,-0.19292 0.161919,-0.69246 v -1.76044 h 1.402154 z"
         style="stroke-width:0.26458332"
         id="path969" />
    </g>
  </g>
</svg>
