<?xml version="1.0" encoding="UTF-8" standalone="no"?>
<!-- Created with Inkscape (http://www.inkscape.org/) -->

<svg
   xmlns:dc="http://purl.org/dc/elements/1.1/"
   xmlns:cc="http://creativecommons.org/ns#"
   xmlns:rdf="http://www.w3.org/1999/02/22-rdf-syntax-ns#"
   xmlns:svg="http://www.w3.org/2000/svg"
   xmlns="http://www.w3.org/2000/svg"
   xmlns:sodipodi="http://sodipodi.sourceforge.net/DTD/sodipodi-0.dtd"
   xmlns:inkscape="http://www.inkscape.org/namespaces/inkscape"
   width="91.87458mm"
   height="28.164581mm"
   viewBox="0 0 91.874581 28.164581"
   version="1.1"
   id="svg8"
   inkscape:version="0.92.2pre0 (973e216, 2017-07-25)"
   sodipodi:docname="FPanL_final.svg">
  <defs
     id="defs2" />
  <sodipodi:namedview
     id="base"
     pagecolor="#ffffff"
     bordercolor="#666666"
     borderopacity="1.0"
     inkscape:pageopacity="0.0"
     inkscape:pageshadow="2"
     inkscape:zoom="2.8284271"
     inkscape:cx="192.4816"
     inkscape:cy="89.821279"
     inkscape:document-units="mm"
     inkscape:current-layer="layer1"
     showgrid="true"
     fit-margin-top="1"
     fit-margin-left="1"
     fit-margin-right="1"
     fit-margin-bottom="1"
     inkscape:window-width="1920"
     inkscape:window-height="1016"
     inkscape:window-x="0"
     inkscape:window-y="27"
     inkscape:window-maximized="1"
     showguides="false"
     inkscape:snap-grids="true"
     inkscape:snap-text-baseline="true">
    <inkscape:grid
       type="xygrid"
       id="grid6112"
       units="mm"
       spacingx="0.0099999999"
       spacingy="0.0099999999"
       dotted="false"
       originx="1.1322916"
       originy="1.1322941" />
  </sodipodi:namedview>
  <metadata
     id="metadata5">
    <rdf:RDF>
      <cc:Work
         rdf:about="">
        <dc:format>image/svg+xml</dc:format>
        <dc:type
           rdf:resource="http://purl.org/dc/dcmitype/StillImage" />
        <dc:title></dc:title>
      </cc:Work>
    </rdf:RDF>
  </metadata>
  <g
     inkscape:label="Layer 1"
     inkscape:groupmode="layer"
     id="layer1"
     transform="translate(1.3968745,-274.20969)">
    <rect
       id="rect10"
       width="89.610001"
       height="25.899998"
       x="-0.26458281"
       y="275.34198"
       style="fill:none;stroke:#000000;stroke-width:0.26458332;stroke-miterlimit:4;stroke-dasharray:none"
       ry="2.0999999"
       rx="2.0999999" />
    <circle
       style="fill:none;stroke:#000000;stroke-width:0.26458332;stroke-miterlimit:4;stroke-dasharray:none"
       id="path12"
       cx="14.695626"
       cy="289.69177"
       r="1.4502083" />
    <circle
       style="fill:none;stroke:#000000;stroke-width:0.26458332;stroke-miterlimit:4;stroke-dasharray:none"
       id="path16"
       cx="19.775625"
       cy="289.69177"
       r="1.4502084" />
    <circle
       style="fill:none;stroke:#000000;stroke-width:0.26458332;stroke-miterlimit:4;stroke-dasharray:none"
       id="path18"
       cx="24.855417"
       cy="289.69199"
       r="1.4499995" />
    <circle
       style="fill:none;stroke:#000000;stroke-width:0.26458332;stroke-miterlimit:4;stroke-dasharray:none"
       id="path20"
       cx="29.935625"
       cy="289.69177"
       r="1.4502083" />
    <circle
       style="fill:none;stroke:#000000;stroke-width:0.26458332;stroke-miterlimit:4;stroke-dasharray:none"
       id="path22"
       cx="35.015625"
       cy="289.69177"
       r="1.4502083" />
    <circle
       style="fill:none;stroke:#000000;stroke-width:0.26458332;stroke-miterlimit:4;stroke-dasharray:none"
       id="path24"
       cx="40.095627"
       cy="289.69177"
       r="1.4502083" />
    <circle
       style="fill:none;stroke:#000000;stroke-width:0.26458332;stroke-miterlimit:4;stroke-dasharray:none"
       id="path26"
       cx="45.175625"
       cy="289.69177"
       r="1.4502083" />
    <circle
       style="fill:none;stroke:#000000;stroke-width:0.26458332;stroke-miterlimit:4;stroke-dasharray:none"
       id="path28"
       cx="53.085625"
       cy="290.74176"
       r="1.7502084" />
    <ellipse
       style="fill:none;stroke:#000000;stroke-width:0.26458332;stroke-miterlimit:4;stroke-dasharray:none"
       id="path30"
       cx="62.055626"
       cy="287.79178"
       rx="3.0002084"
       ry="3.0002081" />
    <circle
       style="fill:none;stroke:#000000;stroke-width:0.26458332;stroke-miterlimit:4;stroke-dasharray:none"
       id="path831"
       cx="70.945625"
       cy="287.79178"
       r="3.0002084" />
    <g
       aria-label="P"
       transform="scale(0.9999185,1.0000815)"
       style="font-style:normal;font-variant:normal;font-weight:normal;font-stretch:normal;font-size:4.23298788px;line-height:1.25;font-family:'Arial Black';-inkscape-font-specification:'Arial Black, ';text-align:center;letter-spacing:0px;word-spacing:0px;text-anchor:middle;fill:#000000;fill-opacity:1;stroke:none;stroke-width:0.26458332"
       id="text875" />
    <g
       aria-label="T"
       style="font-style:normal;font-variant:normal;font-weight:normal;font-stretch:normal;font-size:4.23333311px;line-height:1.25;font-family:'Arial Black';-inkscape-font-specification:'Arial Black, ';text-align:center;letter-spacing:0px;word-spacing:0px;text-anchor:middle;fill:#000000;fill-opacity:1;stroke:none;stroke-width:0.26458332"
       id="text879" />
    <g
       aria-label="L"
       style="font-style:normal;font-variant:normal;font-weight:normal;font-stretch:normal;font-size:4.23333311px;line-height:1.25;font-family:'Arial Black';-inkscape-font-specification:'Arial Black, ';text-align:center;letter-spacing:0px;word-spacing:0px;text-anchor:middle;fill:#000000;fill-opacity:1;stroke:none;stroke-width:0.26458332"
       id="text883" />
    <g
       aria-label="1"
       style="font-style:normal;font-variant:normal;font-weight:normal;font-stretch:normal;font-size:4.23253345px;line-height:1.25;font-family:'Arial Black';-inkscape-font-specification:'Arial Black, ';text-align:center;letter-spacing:0px;word-spacing:0px;text-anchor:middle;fill:#000000;fill-opacity:1;stroke:none;stroke-width:0.26458332"
       id="text887" />
    <g
       aria-label="2"
       style="font-style:normal;font-variant:normal;font-weight:normal;font-stretch:normal;font-size:4.23333311px;line-height:1.25;font-family:'Arial Black';-inkscape-font-specification:'Arial Black, ';text-align:center;letter-spacing:0px;word-spacing:0px;text-anchor:middle;fill:#000000;fill-opacity:1;stroke:none;stroke-width:0.26458332"
       id="text891" />
    <g
       aria-label="B"
       style="font-style:normal;font-variant:normal;font-weight:normal;font-stretch:normal;font-size:4.23333311px;line-height:1.25;font-family:'Arial Black';-inkscape-font-specification:'Arial Black, ';text-align:center;letter-spacing:0px;word-spacing:0px;text-anchor:middle;fill:#000000;fill-opacity:1;stroke:none;stroke-width:0.26458332"
       id="text895" />
    <g
       aria-label="B1"
       style="font-style:normal;font-variant:normal;font-weight:normal;font-stretch:normal;font-size:4.23333311px;line-height:1.25;font-family:'Arial Black';-inkscape-font-specification:'Arial Black, ';text-align:center;letter-spacing:0px;word-spacing:0px;text-anchor:middle;fill:#000000;fill-opacity:1;stroke:none;stroke-width:0.26458332"
       id="text899" />
    <g
       aria-label="RST"
       style="font-style:normal;font-variant:normal;font-weight:normal;font-stretch:normal;font-size:4.23333311px;line-height:1.25;font-family:'Arial Black';-inkscape-font-specification:'Arial Black, ';text-align:center;letter-spacing:0px;word-spacing:0px;text-anchor:middle;fill:#000000;fill-opacity:1;stroke:none;stroke-width:0.26458332"
       id="text903" />
    <g
       aria-label="Mic"
       style="font-style:normal;font-variant:normal;font-weight:normal;font-stretch:normal;font-size:4.23333311px;line-height:1.25;font-family:'Arial Black';-inkscape-font-specification:'Arial Black, ';text-align:center;letter-spacing:0px;word-spacing:0px;text-anchor:middle;fill:#000000;fill-opacity:1;stroke:none;stroke-width:0.26458332"
       id="text907" />
    <flowRoot
       xml:space="preserve"
       id="flowRoot913"
       style="font-style:normal;font-variant:normal;font-weight:normal;font-stretch:normal;font-size:16px;line-height:1.25;font-family:'Arial Black';-inkscape-font-specification:'Arial Black, ';text-align:center;letter-spacing:0px;word-spacing:0px;text-anchor:middle;fill:#000000;fill-opacity:1;stroke:none"
       transform="matrix(0.26458333,0,0,0.26458333,-0.13229166,274.9451)"><flowRegion
         id="flowRegion915"><rect
           id="rect917"
           width="263.17844"
           height="26.601942"
           x="42.356491"
           y="67.638939" /></flowRegion><flowPara
         id="flowPara919" /></flowRoot>    <g
       aria-label="Blubaru"
       style="font-style:normal;font-variant:normal;font-weight:normal;font-stretch:normal;font-size:7.05555534px;line-height:1.25;font-family:'Arial Black';-inkscape-font-specification:'Arial Black, ';letter-spacing:0px;word-spacing:0px;fill:#000000;fill-opacity:1;stroke:none;stroke-width:0.26458332"
       id="text1053">
      <path
         d="m 7.0556265,279.39148 h 2.9214409 q 0.7303606,0 1.1196556,0.36173 0.392741,0.36174 0.392741,0.89573 0,0.44786 -0.279052,0.76825 -0.186036,0.2136 -0.544326,0.33762 0.544326,0.13092 0.799263,0.45131 0.258382,0.31695 0.258382,0.79926 0,0.39274 -0.18259,0.70625 -0.18259,0.3135 -0.499539,0.49609 -0.196371,0.11369 -0.592557,0.16536 -0.5270992,0.0689 -0.6993539,0.0689 H 7.0556265 Z m 1.5744086,1.98093 h 0.6786838 q 0.3651801,0 0.506429,-0.12403 0.144694,-0.12747 0.144694,-0.36518 0,-0.22048 -0.144694,-0.34451 -0.1412489,-0.12402 -0.4960938,-0.12402 h -0.689019 z m 0,1.98437 h 0.795817 q 0.4030762,0 0.5684407,-0.14125 0.1653642,-0.14469 0.1653642,-0.38585 0,-0.22393 -0.1653642,-0.35829 -0.1619194,-0.1378 -0.5718858,-0.1378 H 8.6300351 Z"
         style="font-style:normal;font-variant:normal;font-weight:normal;font-stretch:normal;font-size:7.05555534px;font-family:'Arial Black';-inkscape-font-specification:'Arial Black, ';stroke-width:0.26458332"
         id="path1744" />
      <path
         d="m 12.491987,279.39148 h 1.405599 v 5.05051 h -1.405599 z"
         style="font-style:normal;font-variant:normal;font-weight:normal;font-stretch:normal;font-size:7.05555534px;font-family:'Arial Black';-inkscape-font-specification:'Arial Black, ';stroke-width:0.26458332"
         id="path1746" />
      <path
         d="m 18.655263,284.44199 h -1.309136 v -0.59256 q -0.292834,0.36518 -0.592557,0.52021 -0.296278,0.15503 -0.73036,0.15503 -0.578776,0 -0.909505,-0.34451 -0.327284,-0.34796 -0.327284,-1.06798 v -2.32889 h 1.409044 v 2.01194 q 0,0.34451 0.127468,0.4892 0.127469,0.1447 0.35829,0.1447 0.251492,0 0.409967,-0.19293 0.161919,-0.19292 0.161919,-0.69246 v -1.76045 h 1.402154 z"
         style="font-style:normal;font-variant:normal;font-weight:normal;font-stretch:normal;font-size:7.05555534px;font-family:'Arial Black';-inkscape-font-specification:'Arial Black, ';stroke-width:0.26458332"
         id="path1748" />
      <path
         d="m 19.519982,279.39148 h 1.415935 v 1.7501 q 0.21015,-0.22048 0.475423,-0.33072 0.268717,-0.11025 0.592556,-0.11025 0.668349,0 1.105876,0.48232 0.437527,0.47886 0.437527,1.37803 0,0.59945 -0.199816,1.05765 -0.199815,0.45475 -0.55466,0.68213 -0.3514,0.22393 -0.782037,0.22393 -0.368625,0 -0.675238,-0.15848 -0.230822,-0.12402 -0.502984,-0.46508 v 0.54088 h -1.312582 z m 1.405599,3.21083 q 0,0.47197 0.1757,0.68557 0.179145,0.21015 0.451308,0.21015 0.251492,0 0.420301,-0.20671 0.172255,-0.21015 0.172255,-0.7028 0,-0.43408 -0.16881,-0.63734 -0.165364,-0.20326 -0.403076,-0.20326 -0.285943,0 -0.468533,0.2136 -0.179145,0.21015 -0.179145,0.64079 z"
         style="font-style:normal;font-variant:normal;font-weight:normal;font-stretch:normal;font-size:7.05555534px;font-family:'Arial Black';-inkscape-font-specification:'Arial Black, ';stroke-width:0.26458332"
         id="path1750" />
      <path
         d="m 25.504113,281.96841 -1.340142,-0.14125 q 0.07579,-0.3514 0.217041,-0.55122 0.144694,-0.20326 0.413412,-0.3514 0.192925,-0.10679 0.530544,-0.16536 0.33762,-0.0586 0.73036,-0.0586 0.630453,0 1.012859,0.0724 0.382405,0.0689 0.637342,0.29283 0.179145,0.15503 0.282498,0.44097 0.103353,0.2825 0.103353,0.54088 v 1.61575 q 0,0.25839 0.03101,0.40653 0.03445,0.14469 0.144694,0.37207 h -1.316027 q -0.07924,-0.14125 -0.103353,-0.2136 -0.02411,-0.0758 -0.04823,-0.23427 -0.275608,0.26528 -0.54777,0.37896 -0.37207,0.15159 -0.864719,0.15159 -0.654568,0 -0.995633,-0.30317 -0.337619,-0.30317 -0.337619,-0.74759 0,-0.41685 0.244602,-0.68557 0.244602,-0.26872 0.902615,-0.39963 0.788927,-0.15848 1.023193,-0.22049 0.234267,-0.0654 0.496094,-0.16881 0,-0.25838 -0.106798,-0.36173 -0.106798,-0.10335 -0.375515,-0.10335 -0.34451,0 -0.516765,0.11024 -0.134359,0.0861 -0.217041,0.32384 z m 1.216119,0.73725 q -0.289388,0.10335 -0.602892,0.18259 -0.427192,0.11369 -0.54088,0.22393 -0.117133,0.11369 -0.117133,0.25838 0,0.16537 0.113688,0.27216 0.117133,0.10336 0.341065,0.10336 0.234266,0 0.434082,-0.11369 0.20326,-0.11369 0.285942,-0.27561 0.08613,-0.16536 0.08613,-0.42719 z"
         style="font-style:normal;font-variant:normal;font-weight:normal;font-stretch:normal;font-size:7.05555534px;font-family:'Arial Black';-inkscape-font-specification:'Arial Black, ';stroke-width:0.26458332"
         id="path1752" />
      <path
         d="m 28.952654,280.78329 h 1.312581 v 0.59945 q 0.18948,-0.38929 0.389296,-0.53399 0.203261,-0.14814 0.499539,-0.14814 0.310058,0 0.678684,0.19293 l -0.434082,0.99908 q -0.248047,-0.10336 -0.392741,-0.10336 -0.275608,0 -0.427192,0.22738 -0.217041,0.32039 -0.217041,1.19889 v 1.22646 h -1.409044 z"
         style="font-style:normal;font-variant:normal;font-weight:normal;font-stretch:normal;font-size:7.05555534px;font-family:'Arial Black';-inkscape-font-specification:'Arial Black, ';stroke-width:0.26458332"
         id="path1754" />
      <path
         d="m 36.163238,284.44199 h -1.309136 v -0.59256 q -0.292833,0.36518 -0.592557,0.52021 -0.296278,0.15503 -0.73036,0.15503 -0.578776,0 -0.909505,-0.34451 -0.327284,-0.34796 -0.327284,-1.06798 v -2.32889 h 1.409044 v 2.01194 q 0,0.34451 0.127468,0.4892 0.127469,0.1447 0.35829,0.1447 0.251492,0 0.409967,-0.19293 0.161919,-0.19292 0.161919,-0.69246 v -1.76045 h 1.402154 z"
         style="font-style:normal;font-variant:normal;font-weight:normal;font-stretch:normal;font-size:7.05555534px;font-family:'Arial Black';-inkscape-font-specification:'Arial Black, ';stroke-width:0.26458332"
         id="path1756" />
    </g>
    <g
       aria-label="P"
       style="font-style:normal;font-variant:normal;font-weight:normal;font-stretch:normal;font-size:3.88055563px;line-height:1.25;font-family:'Arial Black';-inkscape-font-specification:'Arial Black, ';text-align:center;letter-spacing:0px;word-spacing:0px;text-anchor:middle;fill:#000000;fill-opacity:1;stroke:none;stroke-width:0.26458332"
       id="text1057">
      <path
         d="m 13.573694,294.36419 h 1.426787 q 0.466121,0 0.697287,0.22169 0.233061,0.22169 0.233061,0.63097 0,0.42064 -0.253904,0.65749 -0.252009,0.23686 -0.771185,0.23686 h -0.469911 v 1.03077 h -0.862135 z m 0.862135,1.18425 h 0.210324 q 0.248219,0 0.348643,-0.0853 0.100425,-0.0872 0.100425,-0.22169 0,-0.13074 -0.08716,-0.22169 -0.08716,-0.091 -0.327801,-0.091 h -0.24443 z"
         style="font-style:normal;font-variant:normal;font-weight:normal;font-stretch:normal;font-size:3.88055563px;font-family:'Arial Black';-inkscape-font-specification:'Arial Black, ';text-align:center;text-anchor:middle;stroke-width:0.26458332"
         id="path1759" />
    </g>
    <text
       xml:space="preserve"
       style="font-style:normal;font-variant:normal;font-weight:normal;font-stretch:normal;font-size:3.88055563px;line-height:1.25;font-family:'Arial Black';-inkscape-font-specification:'Arial Black, ';text-align:center;letter-spacing:0px;word-spacing:0px;text-anchor:middle;fill:#000000;fill-opacity:1;stroke:none;stroke-width:0.26458332"
       x="21.079987"
       y="297.14197"
       id="text1061"><tspan
         sodipodi:role="line"
         id="tspan1059"
         x="21.079987"
         y="300.62119"
         style="font-style:normal;font-variant:normal;font-weight:normal;font-stretch:normal;font-size:3.88055563px;font-family:'Arial Black';-inkscape-font-specification:'Arial Black, ';text-align:center;text-anchor:middle;stroke-width:0.26458332" /></text>
    <g
       aria-label="T"
       style="font-style:normal;font-variant:normal;font-weight:normal;font-stretch:normal;font-size:3.88055563px;line-height:1.25;font-family:'Arial Black';-inkscape-font-specification:'Arial Black, Normal';font-variant-ligatures:normal;font-variant-caps:normal;font-variant-numeric:normal;text-align:center;letter-spacing:0px;word-spacing:0px;writing-mode:lr-tb;text-anchor:middle;fill:#000000;fill-opacity:1;stroke:none;stroke-width:0.26458332"
       id="text1065">
      <path
         d="m 18.462317,294.36419 h 2.609143 v 0.68592 h -0.875398 v 2.09186 h -0.858346 v -2.09186 h -0.875399 z"
         style="stroke-width:0.26458332"
         id="path1762" />
    </g>
    <g
       aria-label="1"
       style="font-style:normal;font-variant:normal;font-weight:normal;font-stretch:normal;font-size:3.88055563px;line-height:1.25;font-family:'Arial Black';-inkscape-font-specification:'Arial Black, Normal';font-variant-ligatures:normal;font-variant-caps:normal;font-variant-numeric:normal;text-align:center;letter-spacing:0px;word-spacing:0px;writing-mode:lr-tb;text-anchor:middle;fill:#000000;fill-opacity:1;stroke:none;stroke-width:0.26458332"
       id="text1069">
      <path
         d="m 25.467438,294.31682 v 2.82515 H 24.68678 v -1.85122 q -0.18948,0.144 -0.367592,0.23306 -0.176217,0.089 -0.443384,0.17053 v -0.63287 q 0.394119,-0.12695 0.612022,-0.30506 0.217902,-0.17811 0.341064,-0.43959 z"
         style="stroke-width:0.26458332"
         id="path1765" />
    </g>
    <g
       aria-label="2"
       style="font-style:normal;font-variant:normal;font-weight:normal;font-stretch:normal;font-size:3.88055563px;line-height:1.25;font-family:'Arial Black';-inkscape-font-specification:'Arial Black, Normal';font-variant-ligatures:normal;font-variant-caps:normal;font-variant-numeric:normal;text-align:center;letter-spacing:0px;word-spacing:0px;writing-mode:lr-tb;text-anchor:middle;fill:#000000;fill-opacity:1;stroke:none;stroke-width:0.26458332"
       id="text1073">
      <path
         d="m 31.05714,297.14197 h -2.315448 q 0.03979,-0.34296 0.240639,-0.64424 0.202744,-0.30316 0.757922,-0.71434 0.339169,-0.252 0.433909,-0.38275 0.09474,-0.13074 0.09474,-0.24821 0,-0.12696 -0.09474,-0.21601 -0.09285,-0.091 -0.234955,-0.091 -0.147795,0 -0.242535,0.0928 -0.09285,0.0928 -0.125057,0.3278 l -0.773079,-0.0625 q 0.04547,-0.3259 0.166742,-0.5078 0.121268,-0.1838 0.341065,-0.28043 0.221692,-0.0985 0.612021,-0.0985 0.407383,0 0.632864,0.0928 0.227376,0.0928 0.356223,0.28612 0.130741,0.19137 0.130741,0.43012 0,0.2539 -0.149689,0.48507 -0.147795,0.23116 -0.540019,0.5078 -0.233061,0.16106 -0.312642,0.22549 -0.07769,0.0644 -0.183796,0.16863 h 1.205094 z"
         style="stroke-width:0.26458332"
         id="path1768" />
    </g>
    <g
       aria-label="L"
       style="font-style:normal;font-variant:normal;font-weight:normal;font-stretch:normal;font-size:3.88055563px;line-height:1.25;font-family:'Arial Black';-inkscape-font-specification:'Arial Black, Normal';font-variant-ligatures:normal;font-variant-caps:normal;font-variant-numeric:normal;text-align:center;letter-spacing:0px;word-spacing:0px;writing-mode:lr-tb;text-anchor:middle;fill:#000000;fill-opacity:1;stroke:none;stroke-width:0.26458332"
       id="text1077">
      <path
         d="m 34.003594,294.36419 h 0.858346 v 2.09375 h 1.339625 v 0.68403 h -2.197971 z"
         style="stroke-width:0.26458332"
         id="path1771" />
    </g>
    <g
       aria-label="B"
       style="font-style:normal;font-variant:normal;font-weight:normal;font-stretch:normal;font-size:3.88055563px;line-height:1.25;font-family:'Arial Black';-inkscape-font-specification:'Arial Black, Normal';font-variant-ligatures:normal;font-variant-caps:normal;font-variant-numeric:normal;text-align:center;letter-spacing:0px;word-spacing:0px;writing-mode:lr-tb;text-anchor:middle;fill:#000000;fill-opacity:1;stroke:none;stroke-width:0.26458332"
       id="text1081">
      <path
         d="m 38.873269,294.36419 h 1.606793 q 0.401698,0 0.615811,0.19895 0.216007,0.19896 0.216007,0.49265 0,0.24632 -0.153479,0.42254 -0.102319,0.11748 -0.299379,0.18569 0.299379,0.072 0.439595,0.24822 0.14211,0.17432 0.14211,0.4396 0,0.216 -0.100425,0.38843 -0.100424,0.17243 -0.274746,0.27285 -0.108004,0.0625 -0.325906,0.0909 -0.289905,0.0379 -0.384645,0.0379 h -1.481736 z m 0.865925,1.08951 h 0.373276 q 0.200849,0 0.278536,-0.0682 0.07958,-0.0701 0.07958,-0.20085 0,-0.12127 -0.07958,-0.18948 -0.07769,-0.0682 -0.272851,-0.0682 h -0.378961 z m 0,1.0914 h 0.4377 q 0.221691,0 0.312642,-0.0777 0.09095,-0.0796 0.09095,-0.21222 0,-0.12316 -0.09095,-0.19706 -0.08906,-0.0758 -0.314537,-0.0758 h -0.435805 z"
         style="stroke-width:0.26458332"
         id="path1774" />
    </g>
    <g
       aria-label="B1"
       style="font-style:normal;font-variant:normal;font-weight:normal;font-stretch:normal;font-size:3.88055563px;line-height:1.25;font-family:'Arial Black';-inkscape-font-specification:'Arial Black, Normal';font-variant-ligatures:normal;font-variant-caps:normal;font-variant-numeric:normal;text-align:center;letter-spacing:0px;word-spacing:0px;writing-mode:lr-tb;text-anchor:middle;fill:#000000;fill-opacity:1;stroke:none;stroke-width:0.26458332"
       id="text1085">
      <path
         d="m 42.657222,294.36419 h 1.606793 q 0.401698,0 0.615811,0.19895 0.216007,0.19896 0.216007,0.49265 0,0.24632 -0.153479,0.42254 -0.102319,0.11748 -0.299378,0.18569 0.299378,0.072 0.439594,0.24822 0.14211,0.17432 0.14211,0.4396 0,0.216 -0.100425,0.38843 -0.100424,0.17243 -0.274746,0.27285 -0.108004,0.0625 -0.325906,0.0909 -0.289905,0.0379 -0.384645,0.0379 h -1.481736 z m 0.865925,1.08951 h 0.373276 q 0.200849,0 0.278536,-0.0682 0.07958,-0.0701 0.07958,-0.20085 0,-0.12127 -0.07958,-0.18948 -0.07769,-0.0682 -0.272851,-0.0682 h -0.378961 z m 0,1.0914 h 0.4377 q 0.221692,0 0.312642,-0.0777 0.09095,-0.0796 0.09095,-0.21222 0,-0.12316 -0.09095,-0.19706 -0.08906,-0.0758 -0.314537,-0.0758 h -0.435805 z"
         style="stroke-width:0.26458332"
         id="path1777" />
      <path
         d="m 47.295699,294.31682 v 2.82515 h -0.780658 v -1.85122 q -0.189481,0.144 -0.367592,0.23306 -0.176217,0.089 -0.443384,0.17053 v -0.63287 q 0.394119,-0.12695 0.612021,-0.30506 0.217903,-0.17811 0.341065,-0.43959 z"
         style="stroke-width:0.26458332"
         id="path1779" />
    </g>
    <g
       aria-label="RST"
       style="font-style:normal;font-variant:normal;font-weight:normal;font-stretch:normal;font-size:3.88055563px;line-height:1.25;font-family:'Arial Black';-inkscape-font-specification:'Arial Black, Normal';font-variant-ligatures:normal;font-variant-caps:normal;font-variant-numeric:normal;text-align:center;letter-spacing:0px;word-spacing:0px;writing-mode:lr-tb;text-anchor:middle;fill:#000000;fill-opacity:1;stroke:none;stroke-width:0.26458332"
       id="text1089">
      <path
         d="m 49.068433,297.14197 v -2.77778 h 1.430576 q 0.397909,0 0.608232,0.0682 0.210323,0.0682 0.33917,0.2539 0.128846,0.1838 0.128846,0.44907 0,0.23117 -0.09853,0.39981 -0.09853,0.16674 -0.270957,0.27095 -0.109899,0.0663 -0.301274,0.1099 0.153479,0.0512 0.223587,0.10232 0.04737,0.0341 0.136426,0.1459 0.09095,0.11179 0.121267,0.17243 l 0.414962,0.80529 H 50.8306 l -0.458542,-0.84887 q -0.08716,-0.16485 -0.155374,-0.21412 -0.09285,-0.0644 -0.210323,-0.0644 h -0.07579 v 1.12741 z m 0.862136,-1.65227 h 0.361907 q 0.05874,0 0.227376,-0.0379 0.08527,-0.017 0.138321,-0.0872 0.05495,-0.0701 0.05495,-0.16106 0,-0.13453 -0.08527,-0.20653 -0.08527,-0.072 -0.320222,-0.072 h -0.377065 z"
         style="stroke-width:0.26458332"
         id="path1782" />
      <path
         d="m 51.923901,296.22299 0.81666,-0.0512 q 0.02653,0.19895 0.108004,0.30317 0.132636,0.16863 0.37896,0.16863 0.183796,0 0.282326,-0.0853 0.100424,-0.0872 0.100424,-0.20085 0,-0.108 -0.09474,-0.19327 -0.09474,-0.0853 -0.439594,-0.16106 -0.564651,-0.12695 -0.805291,-0.33727 -0.242535,-0.21033 -0.242535,-0.53623 0,-0.21412 0.123162,-0.4036 0.125057,-0.19137 0.373276,-0.29937 0.250114,-0.1099 0.684024,-0.1099 0.53244,0 0.810976,0.19895 0.28043,0.19706 0.333485,0.62908 l -0.809081,0.0474 q -0.03221,-0.18759 -0.136426,-0.27286 -0.102319,-0.0853 -0.28422,-0.0853 -0.149689,0 -0.225481,0.0644 -0.07579,0.0625 -0.07579,0.15348 0,0.0663 0.06253,0.11937 0.06063,0.0549 0.28801,0.10232 0.562756,0.12127 0.805291,0.24633 0.244429,0.12316 0.354328,0.30695 0.111793,0.1838 0.111793,0.41118 0,0.26716 -0.147794,0.49265 -0.147795,0.22548 -0.413067,0.34295 -0.265273,0.11559 -0.668865,0.11559 -0.708657,0 -0.981508,-0.27285 -0.272852,-0.27286 -0.308853,-0.6935 z"
         style="stroke-width:0.26458332"
         id="path1784" />
      <path
         d="m 54.682733,294.36419 h 2.609143 v 0.68592 h -0.875398 v 2.09186 h -0.858346 v -2.09186 h -0.875399 z"
         style="stroke-width:0.26458332"
         id="path1786" />
    </g>
    <g
       aria-label="Mic"
       style="font-style:normal;font-variant:normal;font-weight:normal;font-stretch:normal;font-size:3.88055563px;line-height:1.25;font-family:'Arial Black';-inkscape-font-specification:'Arial Black, Normal';font-variant-ligatures:normal;font-variant-caps:normal;font-variant-numeric:normal;text-align:center;letter-spacing:0px;word-spacing:0px;writing-mode:lr-tb;text-anchor:middle;fill:#000000;fill-opacity:1;stroke:none;stroke-width:0.26458332"
       id="text1093">
      <path
         d="m 58.555716,294.36419 h 1.129302 l 0.435805,1.69016 0.433909,-1.69016 h 1.125513 v 2.77778 h -0.701077 v -2.11839 l -0.543808,2.11839 h -0.634759 l -0.541913,-2.11839 v 2.11839 h -0.702972 z"
         style="stroke-width:0.26458332"
         id="path1789" />
      <path
         d="m 62.203211,294.36419 h 0.771184 v 0.52486 h -0.771184 z m 0,0.7655 h 0.771184 v 2.01228 h -0.771184 z"
         style="stroke-width:0.26458332"
         id="path1791" />
      <path
         d="m 64.971517,296.35562 0.733289,0.0834 q -0.06063,0.22927 -0.198955,0.3979 -0.13832,0.16675 -0.354328,0.25959 -0.214112,0.0928 -0.545703,0.0928 -0.320221,0 -0.534334,-0.0587 -0.212218,-0.0606 -0.365697,-0.19327 -0.153479,-0.13453 -0.24064,-0.31454 -0.08716,-0.18 -0.08716,-0.47749 0,-0.31075 0.106109,-0.51728 0.07769,-0.15158 0.212218,-0.27096 0.134531,-0.12126 0.276641,-0.18 0.225482,-0.0928 0.577915,-0.0928 0.492649,0 0.750342,0.17622 0.259588,0.17622 0.363802,0.51539 l -0.72571,0.0966 q -0.03411,-0.12885 -0.125057,-0.19327 -0.08906,-0.0663 -0.240639,-0.0663 -0.191376,0 -0.310748,0.13832 -0.117478,0.13643 -0.117478,0.41496 0,0.24822 0.117478,0.37707 0.117478,0.12885 0.299379,0.12885 0.151584,0 0.253903,-0.0777 0.104214,-0.0777 0.155374,-0.23875 z"
         style="stroke-width:0.26458332"
         id="path1793" />
    </g>
    <g
       aria-label="Line"
       style="font-style:normal;font-variant:normal;font-weight:normal;font-stretch:normal;font-size:3.88055563px;line-height:1.25;font-family:'Arial Black';-inkscape-font-specification:'Arial Black, Normal';font-variant-ligatures:normal;font-variant-caps:normal;font-variant-numeric:normal;text-align:center;letter-spacing:0px;word-spacing:0px;writing-mode:lr-tb;text-anchor:middle;fill:#000000;fill-opacity:1;stroke:none;stroke-width:0.26458332"
       id="text1097">
      <path
         d="m 66.693475,294.36419 h 0.858345 v 2.09375 h 1.339626 v 0.68403 h -2.197971 z"
         style="stroke-width:0.26458332"
         id="path1796" />
      <path
         d="m 69.262827,294.36419 h 0.771185 v 0.52486 h -0.771185 z m 0,0.7655 h 0.771185 v 2.01228 h -0.771185 z"
         style="stroke-width:0.26458332"
         id="path1798" />
      <path
         d="m 70.53045,295.12969 h 0.71813 v 0.3278 q 0.161058,-0.20085 0.325906,-0.28612 0.164848,-0.0872 0.401698,-0.0872 0.320222,0 0.500228,0.19138 0.181901,0.18948 0.181901,0.58739 v 1.27899 h -0.774974 v -1.10657 q 0,-0.18948 -0.07011,-0.26716 -0.07011,-0.0796 -0.197059,-0.0796 -0.140215,0 -0.227376,0.10611 -0.08716,0.10611 -0.08716,0.38086 v 0.96635 H 70.53045 Z"
         style="stroke-width:0.26458332"
         id="path1800" />
      <path
         d="m 75.356512,296.3272 h -1.546159 q 0.02084,0.18569 0.100425,0.27664 0.111793,0.13075 0.291799,0.13075 0.113688,0 0.216008,-0.0569 0.06253,-0.036 0.134531,-0.12695 l 0.759815,0.0701 q -0.174321,0.30317 -0.420646,0.4358 -0.246324,0.13074 -0.706761,0.13074 -0.399803,0 -0.629075,-0.11179 -0.229271,-0.11369 -0.380855,-0.35812 -0.149689,-0.24632 -0.149689,-0.57791 0,-0.47181 0.301273,-0.76361 0.303169,-0.2918 0.835608,-0.2918 0.432015,0 0.682129,0.13074 0.250114,0.13074 0.380856,0.37896 0.130741,0.24822 0.130741,0.64613 z m -0.784448,-0.36948 q -0.02274,-0.22359 -0.121268,-0.32023 -0.09663,-0.0966 -0.255798,-0.0966 -0.183796,0 -0.293694,0.1459 -0.07011,0.091 -0.08906,0.27096 z"
         style="stroke-width:0.26458332"
         id="path1802" />
    </g>
    <text
       xml:space="preserve"
       style="font-style:normal;font-variant:normal;font-weight:normal;font-stretch:normal;font-size:3.88055563px;line-height:1.25;font-family:'Arial Black';-inkscape-font-specification:'Arial Black, Normal';font-variant-ligatures:normal;font-variant-caps:normal;font-variant-numeric:normal;text-align:center;letter-spacing:0px;word-spacing:0px;writing-mode:lr-tb;text-anchor:middle;fill:#000000;fill-opacity:1;stroke:none;stroke-width:0.26458332"
       x="53.335415"
       y="294.84198"
       id="text1807"><tspan
         sodipodi:role="line"
         id="tspan1805"
         x="53.335415"
         y="298.3212"
         style="stroke-width:0.26458332" /></text>
  </g>
</svg>
