<?xml version="1.0" encoding="UTF-8" standalone="no"?>
<!-- Created with Inkscape (http://www.inkscape.org/) -->

<svg
   xmlns:dc="http://purl.org/dc/elements/1.1/"
   xmlns:cc="http://creativecommons.org/ns#"
   xmlns:rdf="http://www.w3.org/1999/02/22-rdf-syntax-ns#"
   xmlns:svg="http://www.w3.org/2000/svg"
   xmlns="http://www.w3.org/2000/svg"
   xmlns:sodipodi="http://sodipodi.sourceforge.net/DTD/sodipodi-0.dtd"
   xmlns:inkscape="http://www.inkscape.org/namespaces/inkscape"
   width="90.474579mm"
   height="26.164583mm"
   viewBox="0 0 90.474579 26.164583"
   version="1.1"
   id="svg8"
   inkscape:version="0.92.2pre0 (973e216, 2017-07-25)"
   sodipodi:docname="FPanL.svg">
  <defs
     id="defs2" />
  <sodipodi:namedview
     id="base"
     pagecolor="#ffffff"
     bordercolor="#666666"
     borderopacity="1.0"
     inkscape:pageopacity="0.0"
     inkscape:pageshadow="2"
     inkscape:zoom="2.828427"
     inkscape:cx="177.20337"
     inkscape:cy="142.6109"
     inkscape:document-units="mm"
     inkscape:current-layer="layer1"
     showgrid="true"
     fit-margin-top="0"
     fit-margin-left="0"
     fit-margin-right="0"
     fit-margin-bottom="0"
     inkscape:window-width="1920"
     inkscape:window-height="1016"
     inkscape:window-x="0"
     inkscape:window-y="27"
     inkscape:window-maximized="1"
     showguides="false"
     inkscape:snap-grids="true"
     inkscape:snap-text-baseline="true">
    <inkscape:grid
       type="xygrid"
       id="grid6112"
       units="mm"
       spacingx="0.0099999999"
       spacingy="0.0099999999"
       dotted="false" />
  </sodipodi:namedview>
  <metadata
     id="metadata5">
    <rdf:RDF>
      <cc:Work
         rdf:about="">
        <dc:format>image/svg+xml</dc:format>
        <dc:type
           rdf:resource="http://purl.org/dc/dcmitype/StillImage" />
        <dc:title />
      </cc:Work>
    </rdf:RDF>
  </metadata>
  <g
     inkscape:label="Layer 1"
     inkscape:groupmode="layer"
     id="layer1"
     transform="translate(0.26458281,-275.07739)">
    <rect
       id="rect10"
       width="89.610001"
       height="25.899998"
       x="-0.26458281"
       y="275.34198"
       style="fill:none;stroke:#000000;stroke-width:0.26458332;stroke-miterlimit:4;stroke-dasharray:none"
       ry="2.0999999"
       rx="2.0999999" />
    <circle
       style="fill:none;stroke:#000000;stroke-width:0.26458332;stroke-miterlimit:4;stroke-dasharray:none"
       id="path12"
       cx="14.695626"
       cy="289.69177"
       r="1.4502083" />
    <circle
       style="fill:none;stroke:#000000;stroke-width:0.26458332;stroke-miterlimit:4;stroke-dasharray:none"
       id="path16"
       cx="19.775625"
       cy="289.69177"
       r="1.4502084" />
    <circle
       style="fill:none;stroke:#000000;stroke-width:0.26458332;stroke-miterlimit:4;stroke-dasharray:none"
       id="path18"
       cx="24.855417"
       cy="289.69199"
       r="1.4499995" />
    <circle
       style="fill:none;stroke:#000000;stroke-width:0.26458332;stroke-miterlimit:4;stroke-dasharray:none"
       id="path20"
       cx="29.935625"
       cy="289.69177"
       r="1.4502083" />
    <circle
       style="fill:none;stroke:#000000;stroke-width:0.26458332;stroke-miterlimit:4;stroke-dasharray:none"
       id="path22"
       cx="35.015625"
       cy="289.69177"
       r="1.4502083" />
    <circle
       style="fill:none;stroke:#000000;stroke-width:0.26458332;stroke-miterlimit:4;stroke-dasharray:none"
       id="path24"
       cx="40.095627"
       cy="289.69177"
       r="1.4502083" />
    <circle
       style="fill:none;stroke:#000000;stroke-width:0.26458332;stroke-miterlimit:4;stroke-dasharray:none"
       id="path26"
       cx="45.175625"
       cy="289.69177"
       r="1.4502083" />
    <circle
       style="fill:none;stroke:#000000;stroke-width:0.26458332;stroke-miterlimit:4;stroke-dasharray:none"
       id="path28"
       cx="53.085625"
       cy="290.74176"
       r="1.7502084" />
    <ellipse
       style="fill:none;stroke:#000000;stroke-width:0.26458332;stroke-miterlimit:4;stroke-dasharray:none"
       id="path30"
       cx="62.055626"
       cy="287.79178"
       rx="3.0002084"
       ry="3.0002081" />
    <circle
       style="fill:none;stroke:#000000;stroke-width:0.26458332;stroke-miterlimit:4;stroke-dasharray:none"
       id="path831"
       cx="70.945625"
       cy="287.79178"
       r="3.0002084" />
    <g
       aria-label="P"
       transform="scale(0.9999185,1.0000815)"
       style="font-style:normal;font-variant:normal;font-weight:normal;font-stretch:normal;font-size:4.23298788px;line-height:1.25;font-family:'Arial Black';-inkscape-font-specification:'Arial Black, ';text-align:center;letter-spacing:0px;word-spacing:0px;text-anchor:middle;fill:#000000;fill-opacity:1;stroke:none;stroke-width:0.26458332"
       id="text875" />
    <g
       aria-label="T"
       style="font-style:normal;font-variant:normal;font-weight:normal;font-stretch:normal;font-size:4.23333311px;line-height:1.25;font-family:'Arial Black';-inkscape-font-specification:'Arial Black, ';text-align:center;letter-spacing:0px;word-spacing:0px;text-anchor:middle;fill:#000000;fill-opacity:1;stroke:none;stroke-width:0.26458332"
       id="text879" />
    <g
       aria-label="L"
       style="font-style:normal;font-variant:normal;font-weight:normal;font-stretch:normal;font-size:4.23333311px;line-height:1.25;font-family:'Arial Black';-inkscape-font-specification:'Arial Black, ';text-align:center;letter-spacing:0px;word-spacing:0px;text-anchor:middle;fill:#000000;fill-opacity:1;stroke:none;stroke-width:0.26458332"
       id="text883" />
    <g
       aria-label="1"
       style="font-style:normal;font-variant:normal;font-weight:normal;font-stretch:normal;font-size:4.23253345px;line-height:1.25;font-family:'Arial Black';-inkscape-font-specification:'Arial Black, ';text-align:center;letter-spacing:0px;word-spacing:0px;text-anchor:middle;fill:#000000;fill-opacity:1;stroke:none;stroke-width:0.26458332"
       id="text887" />
    <g
       aria-label="2"
       style="font-style:normal;font-variant:normal;font-weight:normal;font-stretch:normal;font-size:4.23333311px;line-height:1.25;font-family:'Arial Black';-inkscape-font-specification:'Arial Black, ';text-align:center;letter-spacing:0px;word-spacing:0px;text-anchor:middle;fill:#000000;fill-opacity:1;stroke:none;stroke-width:0.26458332"
       id="text891" />
    <g
       aria-label="B"
       style="font-style:normal;font-variant:normal;font-weight:normal;font-stretch:normal;font-size:4.23333311px;line-height:1.25;font-family:'Arial Black';-inkscape-font-specification:'Arial Black, ';text-align:center;letter-spacing:0px;word-spacing:0px;text-anchor:middle;fill:#000000;fill-opacity:1;stroke:none;stroke-width:0.26458332"
       id="text895" />
    <g
       aria-label="B1"
       style="font-style:normal;font-variant:normal;font-weight:normal;font-stretch:normal;font-size:4.23333311px;line-height:1.25;font-family:'Arial Black';-inkscape-font-specification:'Arial Black, ';text-align:center;letter-spacing:0px;word-spacing:0px;text-anchor:middle;fill:#000000;fill-opacity:1;stroke:none;stroke-width:0.26458332"
       id="text899" />
    <g
       aria-label="RST"
       style="font-style:normal;font-variant:normal;font-weight:normal;font-stretch:normal;font-size:4.23333311px;line-height:1.25;font-family:'Arial Black';-inkscape-font-specification:'Arial Black, ';text-align:center;letter-spacing:0px;word-spacing:0px;text-anchor:middle;fill:#000000;fill-opacity:1;stroke:none;stroke-width:0.26458332"
       id="text903" />
    <g
       aria-label="Mic"
       style="font-style:normal;font-variant:normal;font-weight:normal;font-stretch:normal;font-size:4.23333311px;line-height:1.25;font-family:'Arial Black';-inkscape-font-specification:'Arial Black, ';text-align:center;letter-spacing:0px;word-spacing:0px;text-anchor:middle;fill:#000000;fill-opacity:1;stroke:none;stroke-width:0.26458332"
       id="text907" />
    <flowRoot
       xml:space="preserve"
       id="flowRoot913"
       style="font-style:normal;font-variant:normal;font-weight:normal;font-stretch:normal;font-size:16px;line-height:1.25;font-family:'Arial Black';-inkscape-font-specification:'Arial Black, ';text-align:center;letter-spacing:0px;word-spacing:0px;text-anchor:middle;fill:#000000;fill-opacity:1;stroke:none"
       transform="matrix(0.26458333,0,0,0.26458333,-0.13229166,274.9451)"><flowRegion
         id="flowRegion915"><rect
           id="rect917"
           width="263.17844"
           height="26.601942"
           x="42.356491"
           y="67.638939" /></flowRegion><flowPara
         id="flowPara919" /></flowRoot>    <text
       xml:space="preserve"
       style="font-style:normal;font-variant:normal;font-weight:normal;font-stretch:normal;font-size:3.88055563px;line-height:1.25;font-family:'Arial Black';-inkscape-font-specification:'Arial Black, ';text-align:center;letter-spacing:0px;word-spacing:0px;text-anchor:middle;fill:#000000;fill-opacity:1;stroke:none;stroke-width:0.26458332"
       x="14.695417"
       y="297.14197"
       id="text1057"><tspan
         sodipodi:role="line"
         id="tspan1055"
         x="14.695417"
         y="297.14197"
         style="font-style:normal;font-variant:normal;font-weight:normal;font-stretch:normal;font-size:3.88055563px;font-family:'Arial Black';-inkscape-font-specification:'Arial Black, ';text-align:center;text-anchor:middle;stroke-width:0.26458332">P</tspan></text>
    <text
       xml:space="preserve"
       style="font-style:normal;font-variant:normal;font-weight:normal;font-stretch:normal;font-size:3.88055563px;line-height:1.25;font-family:'Arial Black';-inkscape-font-specification:'Arial Black, ';text-align:center;letter-spacing:0px;word-spacing:0px;text-anchor:middle;fill:#000000;fill-opacity:1;stroke:none;stroke-width:0.26458332"
       x="21.079987"
       y="297.14197"
       id="text1061"><tspan
         sodipodi:role="line"
         id="tspan1059"
         x="21.079987"
         y="300.62119"
         style="font-style:normal;font-variant:normal;font-weight:normal;font-stretch:normal;font-size:3.88055563px;font-family:'Arial Black';-inkscape-font-specification:'Arial Black, ';text-align:center;text-anchor:middle;stroke-width:0.26458332" /></text>
    <text
       xml:space="preserve"
       style="font-style:normal;font-variant:normal;font-weight:normal;font-stretch:normal;font-size:3.88055563px;line-height:1.25;font-family:'Arial Black';-inkscape-font-specification:'Arial Black, Normal';font-variant-ligatures:normal;font-variant-caps:normal;font-variant-numeric:normal;text-align:center;letter-spacing:0px;word-spacing:0px;writing-mode:lr-tb;text-anchor:middle;fill:#000000;fill-opacity:1;stroke:none;stroke-width:0.26458332"
       x="19.775415"
       y="297.14197"
       id="text1065"><tspan
         sodipodi:role="line"
         id="tspan1063"
         x="19.775415"
         y="297.14197"
         style="stroke-width:0.26458332">T</tspan></text>
    <text
       xml:space="preserve"
       style="font-style:normal;font-variant:normal;font-weight:normal;font-stretch:normal;font-size:3.88055563px;line-height:1.25;font-family:'Arial Black';-inkscape-font-specification:'Arial Black, Normal';font-variant-ligatures:normal;font-variant-caps:normal;font-variant-numeric:normal;text-align:center;letter-spacing:0px;word-spacing:0px;writing-mode:lr-tb;text-anchor:middle;fill:#000000;fill-opacity:1;stroke:none;stroke-width:0.26458332"
       x="24.855417"
       y="297.14197"
       id="text1069"><tspan
         sodipodi:role="line"
         id="tspan1067"
         x="24.855417"
         y="297.14197"
         style="stroke-width:0.26458332">1</tspan></text>
    <text
       xml:space="preserve"
       style="font-style:normal;font-variant:normal;font-weight:normal;font-stretch:normal;font-size:3.88055563px;line-height:1.25;font-family:'Arial Black';-inkscape-font-specification:'Arial Black, Normal';font-variant-ligatures:normal;font-variant-caps:normal;font-variant-numeric:normal;text-align:center;letter-spacing:0px;word-spacing:0px;writing-mode:lr-tb;text-anchor:middle;fill:#000000;fill-opacity:1;stroke:none;stroke-width:0.26458332"
       x="29.935417"
       y="297.14197"
       id="text1073"><tspan
         sodipodi:role="line"
         id="tspan1071"
         x="29.935417"
         y="297.14197"
         style="stroke-width:0.26458332">2</tspan></text>
    <text
       xml:space="preserve"
       style="font-style:normal;font-variant:normal;font-weight:normal;font-stretch:normal;font-size:3.88055563px;line-height:1.25;font-family:'Arial Black';-inkscape-font-specification:'Arial Black, Normal';font-variant-ligatures:normal;font-variant-caps:normal;font-variant-numeric:normal;text-align:center;letter-spacing:0px;word-spacing:0px;writing-mode:lr-tb;text-anchor:middle;fill:#000000;fill-opacity:1;stroke:none;stroke-width:0.26458332"
       x="35.015419"
       y="297.14197"
       id="text1077"><tspan
         sodipodi:role="line"
         id="tspan1075"
         x="35.015419"
         y="297.14197"
         style="stroke-width:0.26458332">L</tspan></text>
    <text
       xml:space="preserve"
       style="font-style:normal;font-variant:normal;font-weight:normal;font-stretch:normal;font-size:3.88055563px;line-height:1.25;font-family:'Arial Black';-inkscape-font-specification:'Arial Black, Normal';font-variant-ligatures:normal;font-variant-caps:normal;font-variant-numeric:normal;text-align:center;letter-spacing:0px;word-spacing:0px;writing-mode:lr-tb;text-anchor:middle;fill:#000000;fill-opacity:1;stroke:none;stroke-width:0.26458332"
       x="40.095417"
       y="297.14197"
       id="text1081"><tspan
         sodipodi:role="line"
         id="tspan1079"
         x="40.095417"
         y="297.14197"
         style="stroke-width:0.26458332">B</tspan></text>
    <text
       xml:space="preserve"
       style="font-style:normal;font-variant:normal;font-weight:normal;font-stretch:normal;font-size:3.88055563px;line-height:1.25;font-family:'Arial Black';-inkscape-font-specification:'Arial Black, Normal';font-variant-ligatures:normal;font-variant-caps:normal;font-variant-numeric:normal;text-align:center;letter-spacing:0px;word-spacing:0px;writing-mode:lr-tb;text-anchor:middle;fill:#000000;fill-opacity:1;stroke:none;stroke-width:0.26458332"
       x="45.175415"
       y="297.14197"
       id="text1085"><tspan
         sodipodi:role="line"
         id="tspan1083"
         x="45.175415"
         y="297.14197"
         style="stroke-width:0.26458332">B1</tspan></text>
    <text
       xml:space="preserve"
       style="font-style:normal;font-variant:normal;font-weight:normal;font-stretch:normal;font-size:3.88055563px;line-height:1.25;font-family:'Arial Black';-inkscape-font-specification:'Arial Black, Normal';font-variant-ligatures:normal;font-variant-caps:normal;font-variant-numeric:normal;text-align:center;letter-spacing:0px;word-spacing:0px;writing-mode:lr-tb;text-anchor:middle;fill:#000000;fill-opacity:1;stroke:none;stroke-width:0.26458332"
       x="53.085415"
       y="297.14197"
       id="text1089"><tspan
         sodipodi:role="line"
         id="tspan1087"
         x="53.085415"
         y="297.14197"
         style="stroke-width:0.26458332">RST</tspan></text>
    <text
       xml:space="preserve"
       style="font-style:normal;font-variant:normal;font-weight:normal;font-stretch:normal;font-size:3.88055563px;line-height:1.25;font-family:'Arial Black';-inkscape-font-specification:'Arial Black, Normal';font-variant-ligatures:normal;font-variant-caps:normal;font-variant-numeric:normal;text-align:center;letter-spacing:0px;word-spacing:0px;writing-mode:lr-tb;text-anchor:middle;fill:#000000;fill-opacity:1;stroke:none;stroke-width:0.26458332"
       x="62.055416"
       y="297.14197"
       id="text1093"><tspan
         sodipodi:role="line"
         id="tspan1091"
         x="62.055416"
         y="297.14197"
         style="stroke-width:0.26458332">Mic</tspan></text>
    <text
       xml:space="preserve"
       style="font-style:normal;font-variant:normal;font-weight:normal;font-stretch:normal;font-size:3.88055563px;line-height:1.25;font-family:'Arial Black';-inkscape-font-specification:'Arial Black, Normal';font-variant-ligatures:normal;font-variant-caps:normal;font-variant-numeric:normal;text-align:center;letter-spacing:0px;word-spacing:0px;writing-mode:lr-tb;text-anchor:middle;fill:#000000;fill-opacity:1;stroke:none;stroke-width:0.26458332"
       x="70.945412"
       y="297.14197"
       id="text1097"><tspan
         sodipodi:role="line"
         id="tspan1095"
         x="70.945412"
         y="297.14197"
         style="stroke-width:0.26458332">Line</tspan></text>
    <g
       id="g4591"
       transform="matrix(1.1938642,0,0,1.1938642,-40.150446,-34.042187)"
       style="stroke-width:0.83761615">
      <g
         style="stroke-width:4.44238758"
         id="g2478"
         inkscape:label="ink_ext_XXXXXX"
         transform="matrix(0.06657474,0,0,-0.06645845,37.882136,268.10522)">
        <g
           style="stroke-width:4.44238758"
           id="g2480"
           transform="scale(0.1)">
          <path
             d="M 812.477,880.039 C 367.23,880.039 5,683.75 5,442.48 5,201.25 367.23,5 812.477,5 c 445.263,0 807.513,196.25 807.513,437.48 0,241.27 -362.25,437.559 -807.513,437.559 z M 1609.85,442.48 c 0,-235.632 -357.7,-427.3433 -797.373,-427.3433 -439.657,0 -797.3403,191.7113 -797.3403,427.3433 0,235.68 357.6833,427.422 797.3403,427.422 439.673,0 797.373,-191.742 797.373,-427.422"
             style="fill:#3b3a3c;fill-opacity:1;fill-rule:nonzero;stroke:none;stroke-width:4.44238758"
             id="path2482"
             inkscape:connector-curvature="0" />
          <path
             d="M 812.477,880.039 C 367.23,880.039 5,683.75 5,442.48 5,201.25 367.23,5 812.477,5 c 445.263,0 807.513,196.25 807.513,437.48 0,241.27 -362.25,437.559 -807.513,437.559 z M 1609.85,442.48 c 0,-235.632 -357.7,-427.3433 -797.373,-427.3433 -439.657,0 -797.3403,191.7113 -797.3403,427.3433 0,235.68 357.6833,427.422 797.3403,427.422 439.673,0 797.373,-191.742 797.373,-427.422 z"
             style="fill:none;stroke:#231f20;stroke-width:44.42388153;stroke-linecap:butt;stroke-linejoin:miter;stroke-miterlimit:4;stroke-dasharray:none;stroke-opacity:1"
             id="path2484"
             inkscape:connector-curvature="0" />
          <path
             d="m 5522.95,222.527 h 4.52 c 5.02,0 9.27,1.836 9.27,6.594 0,3.313 -2.43,6.688 -9.27,6.688 -2.05,0 -3.32,-0.133 -4.52,-0.321 z m 0,-21.238 h -6.01 v 38.301 c 3.18,0.586 6.2,1.062 10.82,1.062 5.84,0 9.7,-1.355 11.91,-3.054 2.31,-1.575 3.54,-4.239 3.54,-7.903 0,-4.968 -3.37,-8.074 -7.55,-9.304 v -0.293 c 3.49,-0.625 5.76,-3.758 6.54,-9.375 0.89,-5.989 1.8,-8.262 2.46,-9.434 h -6.51 c -0.91,1.172 -1.79,4.668 -2.58,9.719 -0.92,4.89 -3.36,6.726 -8.25,6.726 h -4.37 z m 6.48,49.043 c -15.11,0 -27.46,-13.008 -27.46,-28.965 0,-16.457 12.35,-29.394 27.67,-29.394 15.32,-0.157 27.49,12.937 27.49,29.211 0,16.14 -12.17,29.148 -27.49,29.148 z m 0.21,5.371 c 18.81,0 33.83,-15.234 33.83,-34.336 0,-19.519 -15.02,-34.719 -34.04,-34.719 -18.78,0 -34.11,15.2 -34.11,34.719 0,19.102 15.33,34.336 34.11,34.336 h 0.21"
             style="fill:#231f20;fill-opacity:1;fill-rule:nonzero;stroke:none;stroke-width:4.44238758"
             id="path2498"
             inkscape:connector-curvature="0" />
          <path
             d="m 814.188,58.9922 c -409.114,0 -740.7622,171.3208 -740.7622,382.7068 0,211.328 331.6482,382.696 740.7622,382.696 409.142,0 740.782,-171.368 740.782,-382.696 0,-211.386 -331.64,-382.7068 -740.782,-382.7068 z M 812.477,874.969 C 369.324,874.969 10.0703,681.367 10.0703,442.48 10.0703,203.699 369.324,10.0664 812.477,10.0664 c 443.173,0 802.443,193.6326 802.443,432.4136 0,238.887 -359.27,432.489 -802.443,432.489"
             style="fill:#231f20;fill-opacity:1;fill-rule:nonzero;stroke:none;stroke-width:4.44238758"
             id="path2500"
             inkscape:connector-curvature="0" />
          <path
             d="m 680.309,239.844 c 0,0 -77.289,-5.926 -76.852,-14.383 0.406,-8.441 63.762,-14.816 74.301,-16.059 10.558,-1.25 51.937,-5.933 63.785,-10.156 11.793,-4.168 19.828,-7.566 24.48,-20.699 4.653,-13.027 16.063,-51.953 16.063,-51.953 0,0 5.477,-21.496 10.144,-21.496 4.629,0 10.094,22.773 10.094,22.773 0,0 11.43,48.613 19.879,57.434 8.418,8.914 9.711,12.261 47.277,18.164 37.598,5.933 74.774,12.683 103.075,12.683 28.305,0 33.805,-0.422 51.065,-2.48 17.38,-2.156 54.51,-6.785 69.29,-11.426 14.77,-4.641 19.86,-15.254 23.66,-24.973 3.83,-9.707 12.24,-35.398 12.24,-35.398 0,0 2.12,-10.605 7.2,-10.605 5.05,0 7.15,10.996 7.15,10.996 0,0 13.56,43.039 21.13,49.785 7.61,6.797 13.13,13.164 50.68,17.812 37.6,4.649 59.98,9.278 73.09,10.098 13.07,0.82 22.35,2.578 22.35,6.758 0,4.211 -5.05,5.847 -23.64,8.484 -18.58,2.481 -73.91,8.41 -103.06,14.731 -29.14,6.343 -30.81,29.57 -35.06,40.996 -4.23,11.406 -7.16,29.519 -13.92,29.519 -6.81,0 -8.43,-12.207 -9.7,-16.023 -1.28,-3.801 -8.02,-27.805 -13.1,-35.852 -5.07,-8.027 -8.89,-16.933 -28.74,-20.742 -19.84,-3.762 -57,-11.855 -92.038,-12.629 -35.058,-0.879 -54.918,1.645 -82.363,5.012 -27.426,3.398 -52.769,4.668 -71.781,13.113 -19.059,8.457 -28.738,36.32 -33.809,53.215 -5.074,16.895 -8.437,24.934 -11.406,24.934 -2.969,0 -8.449,-12.668 -11.797,-23.657 -3.387,-11.004 -12.285,-43.511 -25.348,-51.543 -13.105,-8.035 -35.074,-12.664 -74.339,-16.433"
             style="fill:#231f20;fill-opacity:1;fill-rule:nonzero;stroke:none;stroke-width:4.44238758"
             id="path2502"
             inkscape:connector-curvature="0" />
          <path
             d="m 1208.84,372.832 c -28.27,0.059 -65.47,-6.894 -103.05,-12.93 -37.59,-6.035 -38.85,-9.472 -47.28,-18.484 -8.49,-9.074 -19.85,-58.52 -19.85,-58.52 0,0 -5.51,-23.218 -10.12,-23.218 -4.69,0 -10.18,21.875 -10.18,21.875 0,0 -11.38,39.629 -16.01,52.957 -4.709,13.34 -12.647,16.758 -24.498,21.086 -11.872,4.304 -53.235,9.043 -63.809,10.34 -10.52,1.281 -73.867,7.773 -74.301,16.328 -0.39,8.601 76.852,14.621 76.852,14.621 39.273,3.867 61.258,8.648 74.328,16.797 13.098,8.179 21.958,41.304 25.358,52.488 3.37,11.172 8.83,24.043 11.79,24.043 3,0 6.39,-8.086 11.42,-25.332 5.09,-17.207 14.78,-45.656 33.82,-54.246 18.97,-8.489 44.36,-9.883 71.77,-13.285 0,0 32.75,-6.336 67.37,-5.567 34.61,0.93 56.19,6.809 69.71,8.918 13.49,2.11 38.84,6.328 46.84,24.922 8.03,18.602 16.03,45.598 21.97,46.055 5.9,0.41 15.18,-29.571 15.18,-29.571 0,0 6.74,-29.148 29.61,-34.25 22.77,-5.046 58.66,-13.445 77.26,-16.074 18.57,-2.469 24.48,-4.168 24.48,-9.226 0,-5.086 -24.87,-7.61 -24.87,-7.61 0,0 -67.19,-7.586 -80.68,-16.023 -13.55,-8.449 -21.58,-14.414 -31.71,-60.008 -3.8,-11.801 -4.63,-17.297 -8.44,-17.297 -3.79,0 -10.18,19.004 -17.75,45.215 -7.59,26.172 -13.91,33.34 -51.53,38.848 -37.61,5.5 -53.59,7.089 -73.68,7.148"
             style="fill:#231f20;fill-opacity:1;fill-rule:nonzero;stroke:none;stroke-width:4.44238758"
             id="path2504"
             inkscape:connector-curvature="0" />
          <path
             d="M 250.602,557.227 158.07,544.551 c 0,0 -16.476,-0.656 -16.476,-7 0,-6.34 13.976,-6.34 18.996,-6.953 5.101,-0.657 103.926,-13.957 103.926,-13.957 0,0 157.757,-21.524 172.929,-24.102 15.227,-2.519 57.668,-8.184 76.028,-24.68 18.382,-16.464 34.226,-51.961 45.609,-104.507 11.406,-52.571 23.434,-97.551 23.434,-97.551 0,0 1.914,-15.867 8.211,-15.867 6.39,0 8.273,16.484 8.273,16.484 0,0 31.035,123.523 38.621,145.098 7.621,21.531 18.391,67.105 87.442,77.949 69.042,10.738 197.628,25.269 197.628,25.269 0,0 125.439,15.207 168.559,12.676 43.06,-2.515 91.22,-8.863 103.27,-10.769 12,-1.907 31.42,-4.024 39.87,-25.086 8.45,-21.172 17.74,-60.871 17.74,-60.871 0,0 2.97,-12.207 7.6,-12.207 4.65,0 7.61,11.418 7.61,11.418 0,0 13.91,48.125 19.01,60.371 5.06,12.254 15.23,22.781 52.78,27.449 37.62,4.637 77.31,13.086 77.31,13.086 0,0 18.98,0.41 18.98,7.629 0,7.144 -20.27,7.578 -20.27,7.578 L 1329,559.91 c 0,0 -34.66,2.57 -43.49,25.344 -8.85,22.851 -18.17,47.754 -18.17,47.754 0,0 -1.69,10.137 -6.76,10.137 -5.08,0 -7.59,-12.254 -7.59,-12.254 0,0 -10.15,-35.039 -18.17,-46.465 -8.04,-11.391 -17.74,-22.778 -60.38,-26.992 -42.65,-4.231 -65.02,-8.871 -81.94,-9.329 -16.91,-0.41 -51.96,-0.41 -79.83,2.95 -27.861,3.398 -208.182,25.371 -208.182,25.371 0,0 -72.218,8 -95.054,15.625 -22.774,7.566 -56.204,8.855 -81.93,89.57 -25.746,80.606 -27.43,86.524 -27.43,86.524 0,0 -2.16,14.785 -9.347,14.785 -7.133,0 -9.247,-16.477 -9.247,-16.477 0,0 -28.73,-93.328 -42.257,-121.199 C 525.703,617.402 516.02,591.211 403.27,578.547 303.168,565.41 250.602,557.227 250.602,557.227"
             style="fill:#231f20;fill-opacity:1;fill-rule:nonzero;stroke:none;stroke-width:4.44238758"
             id="path2506"
             inkscape:connector-curvature="0" />
        </g>
      </g>
      <text
         id="text890"
         y="266.84198"
         x="63.89946"
         style="font-style:normal;font-variant:normal;font-weight:normal;font-stretch:normal;font-size:3.88055563px;line-height:1.25;font-family:'Square721 BdEx BT';-inkscape-font-specification:'Square721 BdEx BT';font-variant-ligatures:normal;font-variant-caps:normal;font-variant-numeric:normal;text-align:center;letter-spacing:-0.32808334px;word-spacing:0px;writing-mode:lr-tb;text-anchor:middle;fill:#000000;fill-opacity:1;stroke:none;stroke-width:0.22161926"
         xml:space="preserve"><tspan
           style="font-size:4.23333311px;line-height:1.25;letter-spacing:-0.32808334px;stroke-width:0.22161926"
           y="266.84198"
           x="63.735416"
           id="tspan888"
           sodipodi:role="line">BLUBARU</tspan></text>
    </g>
    <flowRoot
       xml:space="preserve"
       id="flowRoot4593"
       style="font-style:normal;font-variant:normal;font-weight:normal;font-stretch:normal;font-size:14.66666698px;line-height:1.25;font-family:'Eurostile BQ';-inkscape-font-specification:'Eurostile BQ';font-variant-ligatures:normal;font-variant-caps:normal;font-variant-numeric:normal;text-align:center;letter-spacing:0px;word-spacing:0px;writing-mode:lr-tb;text-anchor:middle;fill:#000000;fill-opacity:1;stroke:none"
       transform="matrix(0.26458333,0,0,0.26458333,-0.26458281,275.07739)"><flowRegion
         id="flowRegion4595"><rect
           id="rect4597"
           width="133.03937"
           height="33.259842"
           x="6.0472441"
           y="-88.574799" /></flowRegion><flowPara
         id="flowPara4599"></flowPara></flowRoot>  </g>
</svg>
